<svg id="main" xmlns="http://www.w3.org/2000/svg" viewBox="0 0 1000.25 1000.25"><defs><style>.cls-1{fill:none;stroke:#fff;stroke-miterlimit:10;stroke-width:0.25px;opacity:0;}.cls-2{fill:#fc0;}.cls-3{fill:#6c3;}.cls-4{fill:#df422b;}</style></defs><title>admin</title><rect id="frame" class="cls-1" x="0.13" y="0.13" width="1000" height="1000"/><g id="admin"><path class="cls-2" d="M534,589.5a10.69,10.69,0,0,0-11.2,2.52l-138,138A81.15,81.15,0,1,1,270,615.21L408,477.27A10.72,10.72,0,0,0,401.46,459l-96.33-9.57a10.48,10.48,0,0,0-8.65,3.09L201.9,547.1a177.49,177.49,0,0,0,251,251l94.57-94.57a10.73,10.73,0,0,0,3.1-8.66L541,598.54A10.72,10.72,0,0,0,534,589.5Z" transform="translate(0.13 0.13)"/><path class="cls-3" d="M798.1,201.9a177.69,177.69,0,0,0-251,0l-94.59,94.58a10.74,10.74,0,0,0-3.09,8.65L459,401.46A10.74,10.74,0,0,0,477.27,408L615.21,270A81.16,81.16,0,1,1,730,384.79l-138,138A10.73,10.73,0,0,0,598.56,541l96.31,9.57a7.62,7.62,0,0,0,1.06.06,10.76,10.76,0,0,0,7.6-3.14l94.57-94.58C867.3,383.71,867.3,271.1,798.1,201.9Z" transform="translate(0.13 0.13)"/><path class="cls-4" d="M213.28,419.82h.19l115.91-2a10.75,10.75,0,0,0,2.82-21.06L220.9,364.3a10.74,10.74,0,0,0-13.64,8.89l-4.62,34.47a10.75,10.75,0,0,0,10.64,12.16Z" transform="translate(0.13 0.13)"/><path class="cls-4" d="M396.77,332.2a10.76,10.76,0,0,0,10.31,7.73,9.92,9.92,0,0,0,1.43-.1,10.73,10.73,0,0,0,9.31-10.45l2-115.92a10.73,10.73,0,0,0-12.17-10.81l-34.47,4.63a10.75,10.75,0,0,0-8.88,13.65Z" transform="translate(0.13 0.13)"/><path class="cls-4" d="M786.54,580.18l-115.91,2a10.75,10.75,0,0,0-2.83,21.06l111.3,32.46a11.11,11.11,0,0,0,3,.43,10.73,10.73,0,0,0,10.63-9.32l4.63-34.47a10.73,10.73,0,0,0-2.63-8.56A10.57,10.57,0,0,0,786.54,580.18Z" transform="translate(0.13 0.13)"/><path class="cls-4" d="M603.22,667.82a10.62,10.62,0,0,0-11.73-7.63,10.76,10.76,0,0,0-9.31,10.45l-2,115.9a10.73,10.73,0,0,0,10.73,10.92,8.73,8.73,0,0,0,1.44-.11l34.46-4.62a10.74,10.74,0,0,0,8.9-13.64Z" transform="translate(0.13 0.13)"/></g></svg>