<?xml version="1.0" encoding="utf-8"?>
<!-- Generator: Adobe Illustrator 22.1.0, SVG Export Plug-In . SVG Version: 6.00 Build 0)  -->
<svg version="1.1" id="main" xmlns="http://www.w3.org/2000/svg" xmlns:xlink="http://www.w3.org/1999/xlink" x="0px" y="0px"
	 viewBox="0 0 1000.2 1000.2" style="enable-background:new 0 0 1000.2 1000.2;" xml:space="preserve">
<style type="text/css">
	.st0{fill:none;stroke:#FFFFFF;stroke-width:0.25;stroke-miterlimit:10;stroke-opacity:0;}
	.st1{fill:#FFCC00;}
	.st2{fill:#66CC33;}
	.st3{fill:#3FB6DC;}
</style>
<title>admin</title>
<rect id="frame" x="0.1" y="0.1" class="st0" width="1000" height="1000"/>
<g id="admin">
	<path class="st1" d="M534.1,589.6c-3.9-1.4-8.3-0.4-11.2,2.5l-138,138c-31.7,31.7-83.1,31.7-114.8,0s-31.7-83.1,0-114.8l0,0
		l138-137.9c4.2-4.2,4.2-11,0-15.2c-1.8-1.8-4.1-2.9-6.6-3.1l-96.3-9.6c-3.2-0.4-6.4,0.8-8.6,3.1L202,547.2
		c-68.7,69.9-67.8,182.3,2.1,251c69.1,67.9,179.8,67.9,248.9,0l94.6-94.6c2.3-2.3,3.4-5.5,3.1-8.7l-9.6-96.3
		C540.7,594.6,538,591,534.1,589.6z"/>
	<path class="st2" d="M798.2,202c-69.4-69.2-181.6-69.2-251,0l-94.6,94.6c-2.3,2.3-3.4,5.4-3.1,8.6l9.6,96.3
		c0.6,5.9,5.9,10.2,11.8,9.6c2.5-0.2,4.8-1.3,6.5-3.1l137.9-138c31.7-31.7,83.1-31.7,114.8,0c31.7,31.7,31.7,83.1,0,114.8l-138,138
		c-4.2,4.2-4.1,11,0.1,15.2c1.7,1.7,4,2.8,6.5,3l96.3,9.6c0.4,0,0.7,0.1,1.1,0.1c2.8,0,5.6-1.1,7.6-3.1l94.6-94.6
		C867.4,383.8,867.4,271.2,798.2,202z"/>
	<path class="st3" d="M213.4,420h0.2l115.9-2c5.9-0.1,10.7-5,10.5-11c-0.1-4.7-3.2-8.8-7.7-10.1L221,364.4
		c-5.7-1.7-11.7,1.6-13.3,7.3c-0.1,0.5-0.3,1-0.3,1.6l-4.6,34.5c-0.8,5.9,3.4,11.3,9.2,12.1C212.5,419.9,212.9,419.9,213.4,420z"/>
	<path class="st3" d="M396.9,332.3c1.3,4.6,5.5,7.7,10.3,7.7c0.5,0,1,0,1.4-0.1c5.3-0.7,9.2-5.1,9.3-10.5l2-115.9
		c0.1-5.9-4.6-10.8-10.6-10.9c-0.5,0-1.1,0-1.6,0.1l-34.5,4.6c-5.9,0.8-10,6.2-9.2,12.1c0.1,0.5,0.2,1,0.3,1.6L396.9,332.3z"/>
	<path class="st3" d="M786.7,580.3l-115.9,2c-5.9,0.1-10.7,5-10.5,11c0.1,4.7,3.2,8.8,7.7,10.1l111.3,32.5c1,0.3,2,0.4,3,0.4
		c5.4,0,9.9-4,10.6-9.3l4.6-34.5c0.4-3.1-0.5-6.2-2.6-8.6C792.8,581.6,789.8,580.2,786.7,580.3z"/>
	<path class="st3" d="M603.3,668c-1.4-5.1-6.5-8.4-11.7-7.6c-5.3,0.7-9.2,5.1-9.3,10.5l-2,115.9c-0.1,5.9,4.6,10.8,10.5,10.9
		c0.1,0,0.1,0,0.2,0c0.5,0,1,0,1.4-0.1l34.5-4.6c5.9-0.8,10-6.2,9.2-12.1c-0.1-0.5-0.2-1.1-0.3-1.6L603.3,668z"/>
</g>
</svg>
