<svg id="main" xmlns="http://www.w3.org/2000/svg" viewBox="0 0 1000 1000"><defs><style>.cls-1{fill:#fff;opacity:0;}.cls-2{fill:#fc0;}</style></defs><rect id="frame" class="cls-1" width="1000" height="1000"/><path class="cls-2" d="M799,266.66a94.79,94.79,0,1,1-94.79-94.78A94.79,94.79,0,0,1,799,266.66Z"/><path class="cls-2" d="M704.17,383.34A116.67,116.67,0,1,1,820.83,266.66,116.79,116.79,0,0,1,704.17,383.34Zm0-189.59a72.92,72.92,0,1,0,72.91,72.91A73,73,0,0,0,704.17,193.75Z"/><path class="cls-2" d="M799,733.34a94.79,94.79,0,1,1-94.79-94.8A94.79,94.79,0,0,1,799,733.34Z"/><path class="cls-2" d="M704.17,850A116.67,116.67,0,1,1,820.83,733.34,116.78,116.78,0,0,1,704.17,850Zm0-189.59a72.92,72.92,0,1,0,72.91,72.93A73,73,0,0,0,704.17,660.41Z"/><path class="cls-2" d="M390.63,500a94.8,94.8,0,1,1-94.8-94.79A94.79,94.79,0,0,1,390.63,500Z"/><path class="cls-2" d="M295.83,616.66A116.66,116.66,0,1,1,412.5,500,116.77,116.77,0,0,1,295.83,616.66Zm0-189.57A72.91,72.91,0,1,0,368.75,500,73,73,0,0,0,295.83,427.09Z"/><path class="cls-2" d="M364.7,486a29.17,29.17,0,0,1-14.47-54.51L620.87,277.2a29.17,29.17,0,1,1,28.87,50.69L379.1,482.18A29,29,0,0,1,364.7,486Z"/><path class="cls-2" d="M635.31,726.63a28.93,28.93,0,0,1-14.41-3.83L350.26,568.51a29.17,29.17,0,0,1,28.87-50.69L649.77,672.11a29.17,29.17,0,0,1-14.46,54.52Z"/></svg>