<?xml version="1.0" encoding="utf-8"?>
<!-- Generator: Adobe Illustrator 22.1.0, SVG Export Plug-In . SVG Version: 6.00 Build 0)  -->
<svg version="1.1" id="Capa_1" xmlns="http://www.w3.org/2000/svg" xmlns:xlink="http://www.w3.org/1999/xlink" x="0px" y="0px"
	 viewBox="0 0 297.2 297.2" style="enable-background:new 0 0 297.2 297.2;" xml:space="preserve">
<style type="text/css">
	.st0{fill:#FFFFFF;}
</style>
<path class="st0" d="M236.1,100.3c-1.3-1.3-3.1-2.1-4.9-2.1h-0.8V82.3c0-3.9-3.2-7.1-7.1-7.1h-1.9c0,0-0.1,0-0.1-0.1v-26
	c0-3.9-3-6.8-6.8-6.8h-33c-3.9,0-7.2,3-7.2,6.8v16.3c0,0-0.1,0.1-0.1,0l-20.6-21.2c-1.4-1.5-3.4-2.2-5.4-2.1c-2,0.1-4.1,1.1-5.3,2.8
	l-13.5,17.8c0,0-0.1,0-0.1,0V30.4c0-16.7-13.3-30.1-30-30.4c-0.1,0,0,0.2,0,0.2H99c-0.1,0-0.3-0.2-0.4-0.2
	C81.9,0.2,68.3,13.6,68.3,30.4v67.8c0,0,0,0.1-0.1,0.1h-2.1c-1.9,0-3.6,0.8-5,2.1s-2,3.1-2,5V279c0,1.9,0.7,3.6,2,5l10.7,11
	c1.3,1.3,3.1,2.3,4.9,2.3h143.5c1.9,0,3.6-1,4.9-2.3l10.7-10.9c1.3-1.3,2.1-3.2,2.1-5V105.4C238.1,103.5,237.4,101.7,236.1,100.3z
	 M166.3,98.1v-8.9c0,0,0-0.1,0.1-0.1h49.9c0,0,0.1,0,0.1,0.1v8.9c0,0,0,0.1-0.1,0.1L166.3,98.1C166.3,98.2,166.3,98.2,166.3,98.1z
	 M207.3,56.3v18.9c0,0,0,0.1-0.1,0.1h-18.9c0,0-0.1,0-0.1-0.1V56.3c0,0,0-0.1,0.1-0.1L207.3,56.3C207.3,56.2,207.3,56.2,207.3,56.3z
	 M149.2,59.8l15.1,15.3c0,0,0,0.1,0,0.1h-4.2c-4.3,0-7.8,3.5-7.8,7.8v15.2h0.4L129.3,87v-1L149.2,59.8
	C149.2,59.8,149.2,59.8,149.2,59.8z M82.3,30.4c0-9.1,7.4-16.5,16.5-16.6c9.1,0.1,16.5,7.5,16.5,16.6v11.8c0,0,0,0.1-0.1,0.1
	l-18.6,0c-3.9,0-7.3,3-7.3,6.9c-0.1,3.9,3.1,7.1,7,7.1h18.9c0,0,0.1,0,0.1,0.1v18.9c0,0,0,0.1-0.1,0.1H96.6c-3.9,0-7.3,3-7.3,6.9
	c-0.1,3.9,3.1,7.1,7,7.1l19.1,0c0,0,0.1,0,0.1,0.1c-0.3,1.2,0.1,8.2,0.1,8.9c0,0,0,0.1-0.1,0.1H82.4c0,0-0.1,0-0.1-0.1V30.4z"/>
</svg>
