<?xml version="1.0" encoding="utf-8"?>
<!-- Generator: Adobe Illustrator 22.1.0, SVG Export Plug-In . SVG Version: 6.00 Build 0)  -->
<svg version="1.1" id="Capa_1" xmlns="http://www.w3.org/2000/svg" xmlns:xlink="http://www.w3.org/1999/xlink" x="0px" y="0px"
	 viewBox="0 0 297.2 297.2" style="enable-background:new 0 0 297.2 297.2;" xml:space="preserve">
<style type="text/css">
	.st0{fill:#66CC33;}
</style>
<path class="st0" d="M236.1,100.3c-1.3-1.3-3.1-2.1-4.9-2.1h-0.8v-16c0-3.9-2.3-7-6.2-7h-2.8V49.1c0-3.9-3-6.8-6.8-6.8h-33
	c-3.9,0-7.2,3-7.2,6.8v16.4l-20.7-21.3c-1.4-1.5-3.4-2.2-5.4-2.1c-2,0.1-4.1,1.1-5.3,2.8l-13.6,17.9V30.4c0-16.7-13.3-30.1-30-30.4
	c-0.1,0,0,0.2,0,0.2H99c-0.1,0-0.3-0.2-0.4-0.2C81.9,0.2,68.3,13.6,68.3,30.4v67.9h-2.2c-1.9,0-3.6,0.8-5,2.1s-2,3.1-2,5l0,173.6
	c0,1.9,0.7,3.6,2,5l10.7,11c1.3,1.3,3.1,2.3,4.9,2.3h143.5c1.9,0,3.6-1,4.9-2.3l10.7-10.9c1.3-1.3,2.1-3.2,2.1-5l0-173.7
	C238.1,103.5,237.4,101.7,236.1,100.3z M166.3,98.2v-9h50v9H166.3z M207.3,56.2v19h-19v-19H207.3z M149.2,59.8l15.2,15.4H160
	c-3.9,0-7.7,3.1-7.7,7v16h0.4L129.3,87V86L149.2,59.8z M82.3,30.4c0-9.1,7.4-16.5,16.5-16.6c9.1,0.1,16.5,7.5,16.5,16.6v11.9h-19
	c-3.9,0-7,3.1-7,7s3.1,7,7,7h19v19h-19c-3.9,0-7,3.1-7,7s3.1,7,7,7h19.2c-0.4,1,0.1,9,0.1,9H82.3V30.4z"/>
</svg>
