<?xml version="1.0" encoding="utf-8"?>
<!-- Generator: Adobe Illustrator 22.1.0, SVG Export Plug-In . SVG Version: 6.00 Build 0)  -->
<svg version="1.1" id="main" xmlns="http://www.w3.org/2000/svg" xmlns:xlink="http://www.w3.org/1999/xlink" x="0px" y="0px"
	 viewBox="0 0 1000.2 1000.2" style="enable-background:new 0 0 1000.2 1000.2;" xml:space="preserve">
<style type="text/css">
	.st0{fill:none;stroke:#FFFFFF;stroke-width:0.25;stroke-miterlimit:10;stroke-opacity:0;}
	.st1{fill:#D8DCE1;}
	.st2{fill:#FF4F19;}
	.st3{fill:#FFFFFF;}
	.st4{fill:#5C546A;}
	.st5{fill:#FFCC00;}
	.st6{fill:#FF9600;}
</style>
<title>cros</title>
<rect id="frame" x="0.1" y="0.1" class="st0" width="1000" height="1000"/>
<g>
	<g>
		<path class="st1" d="M150,333.2v448.4c0,30.2,24.5,54.7,54.7,54.7h590.6c30.2,0,54.7-24.5,54.7-54.7V333.2H150z"/>
	</g>
	<g>
		<path class="st2" d="M795.3,180.1H204.7c-30.2,0-54.7,24.5-54.7,54.7v98.4h700v-98.4C850,204.6,825.5,180.1,795.3,180.1z
			 M237.5,289.5c-18.2,0-32.8-14.6-32.8-32.8s14.6-32.8,32.8-32.8s32.8,14.6,32.8,32.8S255.7,289.5,237.5,289.5z M762.5,289.5
			c-18.2,0-32.8-14.6-32.8-32.8s14.6-32.8,32.8-32.8s32.8,14.6,32.8,32.8S780.7,289.5,762.5,289.5z"/>
	</g>
	<g>
		<g>
			<path class="st3" d="M500,431.6c-24.1,0-43.8,19.7-43.8,43.8s19.7,43.8,43.8,43.8s43.8-19.7,43.8-43.8S524.1,431.6,500,431.6z"/>
		</g>
		<g>
			<path class="st3" d="M390.6,431.6c-24.1,0-43.8,19.7-43.8,43.8s19.7,43.8,43.8,43.8s43.8-19.7,43.8-43.8S414.7,431.6,390.6,431.6
				z"/>
		</g>
		<g>
			<path class="st3" d="M281.2,431.6c-24.1,0-43.8,19.7-43.8,43.8s19.7,43.8,43.8,43.8s43.8-19.7,43.8-43.8S305.3,431.6,281.2,431.6
				z"/>
		</g>
		<g>
			<path class="st3" d="M609.4,431.6c-24.1,0-43.8,19.7-43.8,43.8s19.7,43.8,43.8,43.8s43.8-19.7,43.8-43.8S633.4,431.6,609.4,431.6
				z"/>
		</g>
		<g>
			<path class="st3" d="M718.8,519.1c24.1,0,43.8-19.7,43.8-43.8s-19.7-43.8-43.8-43.8S675,451.3,675,475.4S694.7,519.1,718.8,519.1
				z"/>
		</g>
		<g>
			<path class="st3" d="M500,541c-24.1,0-43.8,19.7-43.8,43.8s19.7,43.8,43.8,43.8s43.8-19.7,43.8-43.8S524.1,541,500,541z"/>
		</g>
		<g>
			<path class="st3" d="M390.6,541c-24.1,0-43.8,19.7-43.8,43.8s19.7,43.8,43.8,43.8s43.8-19.7,43.8-43.8S414.7,541,390.6,541z"/>
		</g>
		<g>
			<path class="st3" d="M281.2,541c-24.1,0-43.8,19.7-43.8,43.8s19.7,43.8,43.8,43.8s43.8-19.7,43.8-43.8S305.3,541,281.2,541z"/>
		</g>
		<g>
			<path class="st3" d="M609.4,541c-24.1,0-43.8,19.7-43.8,43.8s19.7,43.8,43.8,43.8s43.8-19.7,43.8-43.8S633.4,541,609.4,541z"/>
		</g>
		<g>
			<path class="st3" d="M718.8,541c-24.1,0-43.8,19.7-43.8,43.8s19.7,43.8,43.8,43.8s43.8-19.7,43.8-43.8S742.8,541,718.8,541z"/>
		</g>
		<g>
			<path class="st3" d="M500,650.4c-24.1,0-43.8,19.7-43.8,43.8s19.7,43.8,43.8,43.8s43.8-19.7,43.8-43.8S524.1,650.4,500,650.4z"/>
		</g>
		<g>
			<path class="st3" d="M390.6,650.4c-24.1,0-43.8,19.7-43.8,43.8s19.7,43.8,43.8,43.8s43.8-19.7,43.8-43.8S414.7,650.4,390.6,650.4
				z"/>
		</g>
		<g>
			<path class="st3" d="M281.2,650.4c-24.1,0-43.8,19.7-43.8,43.8s19.7,43.8,43.8,43.8s43.8-19.7,43.8-43.8S305.3,650.4,281.2,650.4
				z"/>
		</g>
		<g>
			<path class="st3" d="M609.4,650.4c-24.1,0-43.8,19.7-43.8,43.8s19.7,43.8,43.8,43.8s43.8-19.7,43.8-43.8S633.4,650.4,609.4,650.4
				z"/>
		</g>
		<g>
			<path class="st3" d="M718.8,650.4c-24.1,0-43.8,19.7-43.8,43.8s19.7,43.8,43.8,43.8s43.8-19.7,43.8-43.8S742.8,650.4,718.8,650.4
				z"/>
		</g>
	</g>
	<g>
		<g>
			<path class="st4" d="M237.5,273c-9,0-16.4-7.4-16.4-16.4v-76.6c0-9,7.4-16.4,16.4-16.4s16.4,7.4,16.4,16.4v76.6
				C253.9,265.7,246.5,273,237.5,273z"/>
		</g>
	</g>
	<g>
		<g>
			<path class="st4" d="M762.5,273c-9,0-16.4-7.4-16.4-16.4v-76.6c0-9,7.4-16.4,16.4-16.4s16.4,7.4,16.4,16.4v76.6
				C778.9,265.7,771.5,273,762.5,273z"/>
		</g>
	</g>
	<g>
		<circle class="st5" cx="281.2" cy="475.4" r="43.8"/>
	</g>
	<g>
		<circle class="st6" cx="500" cy="694.1" r="43.8"/>
	</g>
	<g>
		<circle class="st2" cx="609.4" cy="584.8" r="43.8"/>
	</g>
</g>
</svg>
