<?xml version="1.0" encoding="utf-8"?>
<!-- Generator: Adobe Illustrator 22.1.0, SVG Export Plug-In . SVG Version: 6.00 Build 0)  -->
<svg version="1.1" id="Capa_1" xmlns="http://www.w3.org/2000/svg" xmlns:xlink="http://www.w3.org/1999/xlink" x="0px" y="0px"
	 viewBox="0 0 512 512" style="enable-background:new 0 0 512 512;" xml:space="preserve">
<style type="text/css">
	.st0{fill:#D8DCE1;}
	.st1{fill:#FF4F19;}
	.st2{fill:#FFFFFF;}
	.st3{fill:#5C546A;}
	.st4{fill:#FFCC00;}
	.st5{fill:#FF9600;}
</style>
<g>
	<g>
		<path class="st0" d="M0,134v328c0,22.1,17.9,40,40,40h432c22.1,0,40-17.9,40-40V134H0z"/>
	</g>
	<g>
		<path class="st1" d="M472,22H40C17.9,22,0,39.9,0,62v72h512V62C512,39.9,494.1,22,472,22z M64,102c-13.3,0-24-10.7-24-24
			s10.7-24,24-24s24,10.7,24,24S77.3,102,64,102z M448,102c-13.3,0-24-10.7-24-24s10.7-24,24-24s24,10.7,24,24S461.3,102,448,102z"
			/>
	</g>
	<g>
		<g>
			<path class="st2" d="M256,206c-17.6,0-32,14.4-32,32s14.4,32,32,32s32-14.4,32-32S273.6,206,256,206z"/>
		</g>
		<g>
			<path class="st2" d="M176,206c-17.6,0-32,14.4-32,32s14.4,32,32,32s32-14.4,32-32S193.6,206,176,206z"/>
		</g>
		<g>
			<path class="st2" d="M96,206c-17.6,0-32,14.4-32,32s14.4,32,32,32s32-14.4,32-32S113.6,206,96,206z"/>
		</g>
		<g>
			<path class="st2" d="M336,206c-17.6,0-32,14.4-32,32s14.4,32,32,32s32-14.4,32-32S353.6,206,336,206z"/>
		</g>
		<g>
			<path class="st2" d="M416,270c17.6,0,32-14.4,32-32s-14.4-32-32-32s-32,14.4-32,32S398.4,270,416,270z"/>
		</g>
		<g>
			<path class="st2" d="M256,286c-17.6,0-32,14.4-32,32s14.4,32,32,32s32-14.4,32-32S273.6,286,256,286z"/>
		</g>
		<g>
			<path class="st2" d="M176,286c-17.6,0-32,14.4-32,32s14.4,32,32,32s32-14.4,32-32S193.6,286,176,286z"/>
		</g>
		<g>
			<path class="st2" d="M96,286c-17.6,0-32,14.4-32,32s14.4,32,32,32s32-14.4,32-32S113.6,286,96,286z"/>
		</g>
		<g>
			<path class="st2" d="M336,286c-17.6,0-32,14.4-32,32s14.4,32,32,32s32-14.4,32-32S353.6,286,336,286z"/>
		</g>
		<g>
			<path class="st2" d="M416,286c-17.6,0-32,14.4-32,32s14.4,32,32,32s32-14.4,32-32S433.6,286,416,286z"/>
		</g>
		<g>
			<path class="st2" d="M256,366c-17.6,0-32,14.4-32,32s14.4,32,32,32s32-14.4,32-32C288,380.4,273.6,366,256,366z"/>
		</g>
		<g>
			<path class="st2" d="M176,366c-17.6,0-32,14.4-32,32s14.4,32,32,32s32-14.4,32-32C208,380.4,193.6,366,176,366z"/>
		</g>
		<g>
			<path class="st2" d="M96,366c-17.6,0-32,14.4-32,32s14.4,32,32,32s32-14.4,32-32C128,380.4,113.6,366,96,366z"/>
		</g>
		<g>
			<path class="st2" d="M336,366c-17.6,0-32,14.4-32,32s14.4,32,32,32s32-14.4,32-32C368,380.4,353.6,366,336,366z"/>
		</g>
		<g>
			<path class="st2" d="M416,366c-17.6,0-32,14.4-32,32s14.4,32,32,32s32-14.4,32-32C448,380.4,433.6,366,416,366z"/>
		</g>
	</g>
	<g>
		<g>
			<path class="st3" d="M64,90c-6.6,0-12-5.4-12-12V22c0-6.6,5.4-12,12-12s12,5.4,12,12v56C76,84.6,70.6,90,64,90z"/>
		</g>
	</g>
	<g>
		<g>
			<path class="st3" d="M448,90c-6.6,0-12-5.4-12-12V22c0-6.6,5.4-12,12-12s12,5.4,12,12v56C460,84.6,454.6,90,448,90z"/>
		</g>
	</g>
	<g>
		<circle class="st4" cx="96" cy="238" r="32"/>
	</g>
	<g>
		<circle class="st5" cx="256" cy="398" r="32"/>
	</g>
	<g>
		<circle class="st1" cx="336" cy="318" r="32"/>
	</g>
</g>
</svg>
