<svg id="main" xmlns="http://www.w3.org/2000/svg" viewBox="0 0 1000.25 1000.25"><defs><style>.cls-1{fill:none;stroke:#fff;stroke-miterlimit:10;stroke-opacity:0;stroke-width:0.25px;}.cls-2{fill:#5d647f;}.cls-3{fill:#ffd100;}.cls-4{fill:#b8bac0;}.cls-5{fill:#8a8895;}.cls-6{fill:#ff4f19;}.cls-7{fill:#ff9500;}</style></defs><title>card</title><rect id="frame" class="cls-1" x="0.13" y="0.13" width="1000" height="1000"/><path class="cls-2" d="M795.31,248.44H204.69A54.74,54.74,0,0,0,150,303.12V696.88a54.74,54.74,0,0,0,54.69,54.68H795.31A54.74,54.74,0,0,0,850,696.88V303.12A54.74,54.74,0,0,0,795.31,248.44Z" transform="translate(0 0)"/><path class="cls-3" d="M390.62,467.19H259.38a21.88,21.88,0,0,1-21.88-21.88v-87.5a21.87,21.87,0,0,1,21.88-21.87H390.62a21.87,21.87,0,0,1,21.88,21.87v87.5A21.88,21.88,0,0,1,390.62,467.19Z" transform="translate(0 0)"/><path class="cls-4" d="M314.06,609.38H259.38A21.88,21.88,0,0,1,237.5,587.5V576.56a21.87,21.87,0,0,1,21.88-21.87h54.68a21.88,21.88,0,0,1,21.88,21.87V587.5A21.89,21.89,0,0,1,314.06,609.38Z" transform="translate(0 0)"/><path class="cls-4" d="M456.25,609.38H401.56a21.88,21.88,0,0,1-21.87-21.88V576.56a21.87,21.87,0,0,1,21.87-21.87h54.69a21.87,21.87,0,0,1,21.87,21.87V587.5A21.88,21.88,0,0,1,456.25,609.38Z" transform="translate(0 0)"/><path class="cls-4" d="M598.44,609.38H543.75a21.88,21.88,0,0,1-21.87-21.88V576.56a21.87,21.87,0,0,1,21.87-21.87h54.69a21.87,21.87,0,0,1,21.87,21.87V587.5A21.88,21.88,0,0,1,598.44,609.38Z" transform="translate(0 0)"/><path class="cls-4" d="M740.62,609.38H685.94a21.89,21.89,0,0,1-21.88-21.88V576.56a21.88,21.88,0,0,1,21.88-21.87h54.68a21.87,21.87,0,0,1,21.88,21.87V587.5A21.88,21.88,0,0,1,740.62,609.38Z" transform="translate(0 0)"/><path class="cls-5" d="M467.19,675H248.44a10.94,10.94,0,0,1,0-21.88H467.19a10.94,10.94,0,0,1,0,21.88Z" transform="translate(0 0)"/><path class="cls-5" d="M609.38,675H510.94a10.94,10.94,0,1,1,0-21.88h98.44a10.94,10.94,0,0,1,0,21.88Z" transform="translate(0 0)"/><path class="cls-6" d="M653.12,445.32a65.62,65.62,0,1,1,0-87.52" transform="translate(0 0)"/><polygon class="cls-7" points="412.5 412.5 303.12 412.5 303.12 390.62 412.5 390.62 412.5 368.75 303.12 368.75 303.12 335.93 281.25 335.93 281.25 467.18 303.12 467.18 303.12 434.37 412.5 434.37 412.5 412.5"/><circle class="cls-3" cx="696.87" cy="401.56" r="65.63"/></svg>