<?xml version="1.0" encoding="utf-8"?>
<!-- Generator: Adobe Illustrator 22.1.0, SVG Export Plug-In . SVG Version: 6.00 Build 0)  -->
<svg version="1.1" id="main" xmlns="http://www.w3.org/2000/svg" xmlns:xlink="http://www.w3.org/1999/xlink" x="0px" y="0px"
	 viewBox="0 0 1000.2 1000.2" style="enable-background:new 0 0 1000.2 1000.2;" xml:space="preserve">
<style type="text/css">
	.st0{fill:none;stroke:#FFFFFF;stroke-width:0.25;stroke-miterlimit:10;stroke-opacity:0;}
	.st1{fill:#7540EE;}
	.st2{fill:#2DC76D;}
</style>
<title>club</title>
<rect id="frame" x="0.1" y="0.1" class="st0" width="1000" height="1000"/>
<g id="flip_chart">
	<path class="st1" d="M326.1,509.6v144.1c0,7.5,6.1,13.5,13.5,13.5l0,0h66.2l-39.2,71.5c0,0,0,0,0,0l-50.2,91.4
		c-3.6,6.5-1.2,14.8,5.4,18.4c6.5,3.6,14.8,1.2,18.4-5.4l46.3-84.4h227.3l46.3,84.4c3.6,6.5,11.8,8.9,18.4,5.4
		c6.5-3.6,8.9-11.8,5.4-18.4l-50.1-91.4c0,0,0-0.1,0-0.1l-39.2-71.5h66.2c7.5,0,13.5-6.1,13.5-13.5c0,0,0,0,0,0V509.6l0-125V231.2
		c0-7.5-6.1-13.5-13.5-13.5l0,0H558.4v-54.1c0-7.5-6.1-13.5-13.5-13.5h-89.6c-7.5,0-13.5,6.1-13.5,13.5v54.1H339.6
		c-7.4,0-13.5,6.1-13.5,13.5v153.4 M326.1,422.9v48.5 M468.9,177.1h62.5v40.6h-62.5V177.1z M599,731.6H401.3l35.3-64.4h127.1
		L599,731.6z M647.1,640.1h-294V244.8h294V640.1z"/>
	<path class="st2" d="M393.7,613.1h212.9c7.5,0,13.5-6,13.5-13.5V285.3c0-7.5-6.1-13.5-13.5-13.5H393.7c-7.5,0-13.5,6-13.5,13.5
		c0,0,0,0,0,0v314.3C380.1,607.1,386.2,613.1,393.7,613.1z"/>
</g>
</svg>
