<svg id="main" xmlns="http://www.w3.org/2000/svg" viewBox="0 0 1000.25 1000.25"><defs><style>.cls-1{fill:none;stroke:#fff;stroke-miterlimit:10;stroke-width:0.25px;opacity:0;}.cls-2{fill:#7540ee;}.cls-3{fill:#2dc76d;}</style></defs><title>club</title><rect id="frame" class="cls-1" x="0.13" y="0.13" width="1000" height="1000"/><g id="flip_chart"><path class="cls-2" d="M841.26,279.78a13.47,13.47,0,0,0-10.19-3.95c-13,.61-79.12,4.73-100.89,26.5a62.27,62.27,0,0,0-18.32,44.35l-37.81,37.81V231.11a13.52,13.52,0,0,0-13.52-13.52H558.3V163.52A13.52,13.52,0,0,0,544.78,150H455.22a13.52,13.52,0,0,0-13.52,13.52v54.07H339.47A13.52,13.52,0,0,0,326,231.11V384.49l-37.81-37.81a62.27,62.27,0,0,0-18.32-44.35C248,280.56,182,276.44,168.93,275.83A13.52,13.52,0,0,0,154.8,290c.61,13,4.73,79.12,26.5,100.89a62.15,62.15,0,0,0,44.24,18.32h.11L326,509.47V653.56a13.52,13.52,0,0,0,13.52,13.52h66.17l-39.18,71.47s0,0,0,.05L316.35,830a13.52,13.52,0,0,0,23.71,13l46.28-84.44H613.66L659.94,843a13.52,13.52,0,0,0,23.71-13l-50.08-91.36a.41.41,0,0,0-.05-.09l-39.16-71.45h66.17a13.52,13.52,0,0,0,13.52-13.52V509.47l100.3-100.3h.11a62.15,62.15,0,0,0,44.24-18.32C840.47,369.08,844.59,303,845.2,290A13.52,13.52,0,0,0,841.26,279.78ZM229.47,381.92a34.38,34.38,0,0,1-3.93.22,35.3,35.3,0,0,1-25.12-10.41c-8.86-8.86-14.95-41-17.5-67.77,26.41,2.57,59,8.73,67.78,17.49a35.54,35.54,0,0,1-21.23,60.47ZM326,471.24l-70-70a62,62,0,0,0,13.84-10.41A62.83,62.83,0,0,0,280.23,377L326,422.73ZM468.74,177h62.52v40.55H468.74ZM598.84,731.5H401.16l35.31-64.42H563.53ZM647,640H353V244.63H647Zm27-168.8V422.73L719.77,377a62.83,62.83,0,0,0,10.42,13.84A62,62,0,0,0,744,401.26Zm125.53-99.51a35.3,35.3,0,0,1-25.12,10.41h0a34.38,34.38,0,0,1-3.93-.22,35.55,35.55,0,0,1-21.23-60.47c8.86-8.86,41-14.95,67.77-17.5C814.5,330.36,808.33,363,799.58,371.73Z" transform="translate(0.13 0.13)"/><path class="cls-3" d="M393.54,613H606.46A13.53,13.53,0,0,0,620,599.49V285.18a13.52,13.52,0,0,0-13.52-13.51H393.54A13.52,13.52,0,0,0,380,285.18V599.49A13.53,13.53,0,0,0,393.54,613Z" transform="translate(0.13 0.13)"/></g></svg>