<svg id="main" xmlns="http://www.w3.org/2000/svg" viewBox="0 0 1000.25 1000.25"><defs><style>.cls-1{fill:none;stroke:#fff;stroke-miterlimit:10;stroke-width:0.25px;opacity:0;}.cls-2{fill:#fc0;}.cls-3{fill:#f38a0c;}</style></defs><title>event_spaces</title><rect id="frame" class="cls-1" x="0.13" y="0.13" width="1000" height="1000"/><g id="event_spaces"><path d="M290.56,390.75a11.29,11.29,0,0,0-13.91-7.87c-8.13,2.26-24.49,1-32.9-.27a11.56,11.56,0,0,0-2.49-.12,25.63,25.63,0,0,0-21.23,14A26.88,26.88,0,0,0,221.09,423c.15.25.37.57.54.8s6.39,8.91,5.38,18.46a11.3,11.3,0,0,0,10.05,12.42,9.74,9.74,0,0,0,1.2.06,11.29,11.29,0,0,0,11.22-10.09c1.77-16.79-7-30.45-9.29-33.73a4.42,4.42,0,0,1-.08-4.11,3.11,3.11,0,0,1,1.87-1.65c6.39.89,27,3.28,40.72-.53A11.29,11.29,0,0,0,290.56,390.75Z" transform="translate(0.13 0.13)"/><path class="cls-2" d="M375.91,572.22c34-12.71,125.61-54.53,140.2-94.93A11.3,11.3,0,1,1,537.36,485c-6.8,18.84-24.18,36.43-44.95,51.75,57.59-14.18,169-37.09,220.21-41.24a3.13,3.13,0,0,0,2.81-1.8,4.41,4.41,0,0,0-.22-4.37c-14.56-22.94-29.28-60.27-39.13-89.6a10.44,10.44,0,0,1-.91-1.76c-1.46-3.64-36.49-89.08-101-71.61a11.29,11.29,0,1,1-5.88-21.81c36.84-9.95,67.25,5.31,89.67,27.3-6.07-29.93-11.72-67.72-10.66-93.71a3,3,0,0,0-1.35-3,5,5,0,0,0-2.75-.85,5.16,5.16,0,0,0-2,.42C591.4,258.44,465.9,301,413.67,315c-49.19,13.22-180.34,40.89-237.78,45.54h-.16a3.07,3.07,0,0,0-2.66,1.79,4.4,4.4,0,0,0,.22,4.37c20.72,31.44,41.42,93,49.45,121.07,7.5,26.24,20.85,91.34,19.26,130.11a3,3,0,0,0,1.36,3,4.83,4.83,0,0,0,4.74.44c27.46-13.12,78-32,126.48-48.55A12.48,12.48,0,0,1,375.91,572.22Z" transform="translate(0.13 0.13)"/><path class="cls-2" d="M823.82,503.66c-21.69-1.45-54.13-6.58-85.31-12a26.82,26.82,0,0,1-3,12.36,25.68,25.68,0,0,1-21.24,14c-55.41,4.49-184.21,31.77-232.82,44.83C439.66,574.08,350.35,603.8,292,627.14c-.72,1.28-1.51,2.57-2.31,3.86s-1.51,2.37-2.1,3.57c-.15.29-.32.59-.48.87a3.85,3.85,0,0,0-.34,3.85,4.24,4.24,0,0,0,3.51,2.37c35.25,2.85,98.65,14.19,153.57,25.38,44.05,5.57,122.15,9.66,150.13-14.44a11.3,11.3,0,0,1,14.76,17.11c-14.28,12.31-36.14,18.87-60,22,57.74,17.12,160.83,51.88,206.61,73.75A3.83,3.83,0,0,0,759,765a3.09,3.09,0,0,0,1.29-2.93c-1.14-27.75,5.27-68.47,11.58-99.59,1.57-12.55,9.4-94.47-52.21-110.94a11.3,11.3,0,0,1,5.84-21.84c36.41,9.74,55.19,37.2,63.86,66.7,9.63-28.8,23.5-64.18,37.37-86.59a3.83,3.83,0,0,0,.33-3.83A4.23,4.23,0,0,0,823.82,503.66Z" transform="translate(0.13 0.13)"/><path class="cls-3" d="M847.46,496.29a26.94,26.94,0,0,0-20.93-15.08c-.27,0-.51-.06-.77-.07-23.85-1.55-62.63-8-97.41-14.16-17.4-32.26-34.48-83.08-40.11-105-6.92-24.23-19.86-87.22-18.41-122.68A25.57,25.57,0,0,0,659,216.67a27.82,27.82,0,0,0-27.13-2.59c-49.16,23.49-172.58,65.31-224,79.13-48.47,13-177.41,40.27-233.68,44.84A25.67,25.67,0,0,0,153,352a27,27,0,0,0,1.26,26.86c18,27.32,37.82,83.83,46.77,115.14,6.93,24.25,19.87,87.23,18.43,122.7a25.55,25.55,0,0,0,10.86,22.68A27.14,27.14,0,0,0,246,644.34,28.78,28.78,0,0,0,257.42,642q3-1.44,6.38-3a26.4,26.4,0,0,0,2.49,10c3.9,8.22,11.73,13.86,21.52,15.15,29.31,2.38,80.59,11.14,129.39,20.68a11.12,11.12,0,0,0,4.4,1.79c2.67.47,9.26,1.56,18.5,2.78,33,6.71,62.87,13.37,81.46,18.08C569.67,720.4,694.43,761.41,746,786a27.48,27.48,0,0,0,10.84,2.26,26.15,26.15,0,0,0,15.23-4.87,25.49,25.49,0,0,0,10.78-22.57c-1-23.76,4.56-60.86,10.68-91.54a11.44,11.44,0,0,0,.47-2l.21-1.42c2.17-10.66,4.39-20.43,6.39-28.43,7.28-29.16,27.63-87.18,45.36-115.82A26.54,26.54,0,0,0,847.46,496.29ZM248.1,621.38a4.83,4.83,0,0,1-4.74-.44,3,3,0,0,1-1.36-3c1.59-38.77-11.76-103.87-19.26-130.11-8-28.1-28.73-89.63-49.45-121.07a4.4,4.4,0,0,1-.22-4.37,3.07,3.07,0,0,1,2.66-1.79h.16c57.44-4.65,188.59-32.32,237.78-45.54,52.23-14,177.73-56.59,227.49-80.37a5.16,5.16,0,0,1,2-.42,5,5,0,0,1,2.75.85,3,3,0,0,1,1.35,3c-1.06,26,4.59,63.78,10.66,93.71-22.42-22-52.83-37.25-89.67-27.3a11.29,11.29,0,1,0,5.88,21.81c64.56-17.47,99.59,68,101,71.61a10.44,10.44,0,0,0,.91,1.76c9.85,29.33,24.57,66.66,39.13,89.6a4.41,4.41,0,0,1,.22,4.37,3.13,3.13,0,0,1-2.81,1.8c-51.19,4.15-162.62,27.06-220.21,41.24,20.77-15.32,38.15-32.91,44.95-51.75a11.3,11.3,0,1,0-21.25-7.67c-14.59,40.4-106.15,82.22-140.2,94.93a12.48,12.48,0,0,0-1.33.61C326.05,589.43,275.56,608.26,248.1,621.38ZM826.72,509.82c-13.87,22.41-27.74,57.79-37.37,86.59-8.67-29.5-27.45-57-63.86-66.7a11.3,11.3,0,0,0-5.84,21.84c61.61,16.47,53.78,98.39,52.21,110.94-6.31,31.12-12.72,71.84-11.58,99.59A3.09,3.09,0,0,1,759,765a3.83,3.83,0,0,1-3.66.44c-45.78-21.87-148.87-56.63-206.61-73.75,23.83-3.12,45.69-9.68,60-22a11.3,11.3,0,0,0-14.76-17.11c-28,24.1-106.08,20-150.13,14.44-54.92-11.19-118.32-22.53-153.57-25.38a4.24,4.24,0,0,1-3.51-2.37,3.85,3.85,0,0,1,.34-3.85c.16-.28.33-.58.48-.87.59-1.2,1.36-2.38,2.1-3.57s1.59-2.58,2.31-3.86c58.4-23.34,147.71-53.06,189.51-64.29,48.61-13.06,177.41-40.34,232.82-44.83a25.68,25.68,0,0,0,21.24-14,26.82,26.82,0,0,0,3-12.36c31.18,5.39,63.62,10.52,85.31,12a4.23,4.23,0,0,1,3.23,2.33A3.83,3.83,0,0,1,826.72,509.82Z" transform="translate(0.13 0.13)"/></g></svg>