<svg id="main" xmlns="http://www.w3.org/2000/svg" viewBox="0 0 544.94 700"><defs><style>.cls-1{fill:#d5d5d5;}</style></defs><title>file</title><g id="file"><path class="cls-1" d="M227.84,788.05c0,24.63,9.71,39,17.86,46.74C260.57,848.91,279.19,850,284.11,850c.64,0,1,0,1.18,0H710.55c22.37,0,36.23-9.21,43.92-16.94,17.67-17.8,18-42.39,18-45V292.62a22.31,22.31,0,0,0-1.71-8.49,22.66,22.66,0,0,0-4.82-7.24L645.59,156.53A22.64,22.64,0,0,0,629.86,150H285.29c-22.3,0-35.55,9.74-42.73,17.9-16.44,18.69-15.39,44.8-14.72,52.13Zm390.87-593.6h1.93l102,102-82,0c0,.13-9.47.13-15.6-5.69-4.21-4-6.34-10.86-6.34-20.39Zm-342.77,2.8c.61-.7,2.45-2.8,9.35-2.8h289V270.4c0,27.64,11,43.86,20.15,52.61,17.51,16.64,39.87,17.94,45.9,17.94.75,0,1.24,0,1.45,0H728v447c-.39,17.59-13.25,17.59-17.46,17.59l-426.45,0c-.06,0-5-.33-7.81-3-3.48-3.31-4-10.48-4-14.48V218.88a24.47,24.47,0,0,0-.18-2.84C271.64,212.34,272.06,201.67,275.94,197.25Z" transform="translate(-227.53 -150)"/><path class="cls-1" d="M342.38,681.76h55.88v55.86a22.23,22.23,0,1,0,44.46,0V681.76h55.87a22.24,22.24,0,0,0,0-44.47H442.72V581.42a22.23,22.23,0,0,0-44.46,0v55.87H342.38a22.24,22.24,0,0,0,0,44.47Z" transform="translate(-227.53 -150)"/></g></svg>