<?xml version="1.0" encoding="utf-8"?>
<!-- Generator: Adobe Illustrator 22.1.0, SVG Export Plug-In . SVG Version: 6.00 Build 0)  -->
<svg version="1.1" id="main" xmlns="http://www.w3.org/2000/svg" xmlns:xlink="http://www.w3.org/1999/xlink" x="0px" y="0px"
	 viewBox="0 0 1000.2 1000.2" style="enable-background:new 0 0 1000.2 1000.2;" xml:space="preserve">
<style type="text/css">
	.st0{fill:none;stroke:#FFFFFF;stroke-width:0.25;stroke-miterlimit:10;stroke-opacity:0;}
	.st1{fill:#FFCC00;}
	.st2{fill:#2DC76D;}
	.st3{fill:#FF7052;}
</style>
<title>cros</title>
<rect id="frame" x="0.1" y="0.1" class="st0" width="1000" height="1000"/>
<g>
	<path class="st1" d="M245.2,794.5c0,0-0.6,15.6,14.7,15.6c19,0,176.5-0.2,176.5-0.2l0.3-144.6c0,0-2.5-23.8,20.6-23.8h73.2
		c27.4,0,25.7,23.8,25.7,23.8l-0.3,144.1c0,0,149.3,0,172.7,0c19.4,0,18.5-19.5,18.5-19.5V523.4L503.6,306.9L245.2,523.4
		C245.2,523.4,245.2,794.5,245.2,794.5z"/>
	<path class="st2" d="M150,503.2c0,0,21.9,40.4,69.8,0l286-241.9l268.1,240.4c55.4,39.9,76.1,0,76.1,0L505.8,189.9L150,503.2z"/>
	<polygon class="st3" points="767.4,260.8 698.4,260.8 698.7,344.4 767.4,402.6 	"/>
</g>
</svg>
