<?xml version="1.0" encoding="utf-8"?>
<!-- Generator: Adobe Illustrator 22.1.0, SVG Export Plug-In . SVG Version: 6.00 Build 0)  -->
<svg version="1.1" id="Capa_1" xmlns="http://www.w3.org/2000/svg" xmlns:xlink="http://www.w3.org/1999/xlink" x="0px" y="0px"
	 viewBox="0 0 512 512" style="enable-background:new 0 0 512 512;" xml:space="preserve">
<style type="text/css">
	.st0{fill:#EEEEEE;}
</style>
<g>
	<g>
		<path class="st0" d="M432.7,0H79.3c-8.3,0-15,6.7-15,15v437.8c0,4,1.6,7.8,4.4,10.6l44.2,44.2c5.9,5.9,15.4,5.9,21.2,0l33.6-33.6
			l33.6,33.6c2.8,2.8,6.6,4.4,10.6,4.4s7.8-1.6,10.6-4.4L256,474l33.6,33.6c2.8,2.8,6.6,4.4,10.6,4.4s7.8-1.6,10.6-4.4l33.6-33.6
			l33.6,33.6c2.9,2.9,6.8,4.4,10.6,4.4c3.8,0,7.7-1.5,10.6-4.4l44.2-44.2c2.8-2.8,4.4-6.6,4.4-10.6V15C447.7,6.7,441,0,432.7,0z
			 M241,112.7V95.3c0-8.3,6.7-15,15-15c8.3,0,15,6.7,15,15v17.1h17.1c8.3,0,15,6.7,15,15s-6.7,15-15,15h-42.8
			c-9.4,0-17.1,7.7-17.1,17.1c0,9.4,7.7,17.1,17.1,17.1h21.4c26,0,47.1,21.1,47.1,47.1c0,24.5-18.9,44.8-42.8,46.9v17.3
			c0,8.3-6.7,15-15,15c-8.3,0-15-6.7-15-15V271h-17.1c-8.3,0-15-6.7-15-15s6.7-15,15-15h42.8c9.4,0,17.1-7.7,17.1-17.1
			c0-9.4-7.7-17.1-17.1-17.1h-21.4c-26,0-47.1-21.1-47.1-47.1C198.2,135.1,217,114.8,241,112.7z M336.3,383.5H175.7
			c-8.3,0-15-6.7-15-15s6.7-15,15-15h160.7c8.3,0,15,6.7,15,15S344.6,383.5,336.3,383.5z"/>
	</g>
</g>
</svg>
