<svg id="main" xmlns="http://www.w3.org/2000/svg" viewBox="0 0 1000.25 1000.25"><defs><style>.cls-1{fill:none;stroke:#fff;stroke-miterlimit:10;stroke-width:0.25px;opacity:0;}.cls-2{fill:#868697;}</style></defs><title>laundry_unselected</title><rect id="frame" class="cls-1" x="0.13" y="0.13" width="1000" height="1000"/><g id="laundry"><g id="unselected"><path class="cls-2" d="M553.29,198.77h-.63a13.67,13.67,0,1,0,0,27.34h.63a13.67,13.67,0,1,0,0-27.34Z" transform="translate(0.13 0.13)"/><path class="cls-2" d="M658.32,198.77H595.55a13.67,13.67,0,1,0,0,27.34h62.77a13.67,13.67,0,0,0,0-27.34Z" transform="translate(0.13 0.13)"/><path class="cls-2" d="M498.6,198.77H498a13.67,13.67,0,0,0,0,27.34h.63a13.67,13.67,0,0,0,0-27.34Z" transform="translate(0.13 0.13)"/><path class="cls-2" d="M825.08,548.43,739.8,504.8a13.63,13.63,0,0,0-6.23-1.5h-1.9V191.75A41.8,41.8,0,0,0,689.92,150H209.22a41.8,41.8,0,0,0-41.75,41.75v616.5c0,23,17.33,41.75,38.63,41.75H733.57a13.68,13.68,0,0,0,13.68-13.67V668l13.22,6.76a13.67,13.67,0,0,0,18.4-5.94L831,566.83A13.67,13.67,0,0,0,825.08,548.43ZM194.82,191.75a14.43,14.43,0,0,1,14.4-14.41h480.7a14.43,14.43,0,0,1,14.41,14.41v83.14H194.82Zm262.37,630.9H206.1c-6.11,0-11.28-6.59-11.28-14.4V353.45h49.09a13.67,13.67,0,0,0,0-27.34H194.82V302.23H704.33V503.3H654.82a13.66,13.66,0,0,0-13.63,12.82A196.49,196.49,0,0,0,449.51,362.59c-108.27,0-196.35,88.09-196.35,196.36S341.24,755.3,449.51,755.3c2.55,0,5.11-.07,7.68-.17Zm0-94.88c-2.57.12-5.14.19-7.68.19-93.19,0-169-75.82-169-169s75.82-169,169-169A169,169,0,0,1,618.38,552.38,38.79,38.79,0,0,1,580.07,549,130.95,130.95,0,0,0,449.51,428C377.32,428,318.58,486.76,318.58,559A131.07,131.07,0,0,0,449.51,689.88c2.56,0,5.12-.1,7.68-.25v38.14Zm-89.7-157.92,43.62,85.28a103.62,103.62,0,1,1,126-151.83H470.86a13.66,13.66,0,0,0-6.23,1.5l-91.2,46.65A13.67,13.67,0,0,0,367.49,569.85Zm393.26,74.3-21-10.71a13.68,13.68,0,0,0-19.9,12.17v177H484.53v-36h90.54a13.67,13.67,0,0,0,0-27.34H484.53V645.61a13.67,13.67,0,0,0-19.9-12.17l-26.87,13.74-39.71-77.61,76.1-38.93h63.21a66.21,66.21,0,0,0,19.41,34.51,12.92,12.92,0,0,0,1.59,1.46,66.09,66.09,0,0,0,80.94,5.25,12.27,12.27,0,0,0,1.57-1.1,66.44,66.44,0,0,0,26.2-40.12h63.21l70.17,35.9Z" transform="translate(0.13 0.13)"/></g></g></svg>