<?xml version="1.0" encoding="utf-8"?>
<!-- Generator: Adobe Illustrator 22.1.0, SVG Export Plug-In . SVG Version: 6.00 Build 0)  -->
<svg version="1.1" id="main" xmlns="http://www.w3.org/2000/svg" xmlns:xlink="http://www.w3.org/1999/xlink" x="0px" y="0px"
	 viewBox="0 0 1000.2 1000.2" style="enable-background:new 0 0 1000.2 1000.2;" xml:space="preserve">
<style type="text/css">
	.st0{display:none;fill:none;stroke:#FFFFFF;stroke-width:0.25;stroke-miterlimit:10;stroke-opacity:0;}
	.st1{fill:#FFCC00;}
	.st2{fill:#2F61D5;}
	.st3{fill:#FFFFFF;}
	.st4{fill:none;}
</style>
<title>laundry_selected</title>
<rect id="frame" x="0.1" y="0.1" class="st0" width="1000" height="1000"/>
<g id="laundry">
	<g id="selected">
		<path class="st1" d="M86.9,226.1h695.7V100.7c-0.1-20.1-16.3-36.3-36.4-36.4H123.3c-20.1,0.1-36.3,16.3-36.4,36.4V226.1z"/>
		<path class="st2" d="M782.6,226.1H86.9v673.4c0,20,14.6,36.4,32.4,36.4h343V811.6c-9.2,1.1-18.4,1.6-27.7,1.6
			C304,813.2,198,707.2,198,576.5c0-130.7,106-236.7,236.7-236.7c131.4,0,237.6,107,236.7,238.4c18.4-12.7,29.3-33.6,29.3-56h81.9
			V226.1z"/>
		<path class="st3" d="M671.4,578.2c0.9-131.4-105.3-238.4-236.7-238.4C304,339.8,198,445.8,198,576.6
			c0,130.7,106,236.7,236.7,236.7c9.2,0,18.5-0.5,27.7-1.6V726c-82.5,15.3-161.8-39.2-177.1-121.7C270,521.7,324.5,442.4,407,427.1
			c82.5-15.3,161.8,39.2,177.1,121.7c1.4,7.8,2.3,15.7,2.5,23.6C610.1,593.9,645.3,596.3,671.4,578.2L671.4,578.2z"/>
		<path class="st2" d="M586.6,572.4c-2.3-83.8-72.2-149.9-156-147.5c-83.8,2.3-149.9,72.2-147.5,156s72.2,149.9,156,147.5
			c7.8-0.2,15.6-1,23.3-2.5v-37.1l-50.5,25.9l-67.6-132.2l118.1-60.4h102C564.4,541.3,572.5,559.5,586.6,572.4z"/>
		<path class="st1" d="M462.4,522.2h102c-0.5,37.6,29.6,68.6,67.2,69.1c37.6,0.5,68.6-29.6,69.1-67.2c0-0.6,0-1.3,0-1.9h102.1
			l110.5,56.5l-67.6,132.1l-42.9-22V936H462.4V688.8l-50.6,25.9l-67.6-132.2L462.4,522.2z"/>
		<path class="st1" d="M568.4,145.2h0.8c9.8,0,17.7-7.9,17.7-17.7s-7.9-17.7-17.7-17.7c0,0,0,0,0,0h-0.8c-9.8,0-17.7,7.9-17.7,17.7
			S558.6,145.2,568.4,145.2C568.4,145.2,568.4,145.2,568.4,145.2z"/>
		<path class="st1" d="M624,145.2h81.3c9.8,0,17.7-7.9,17.7-17.7c0-9.8-7.9-17.7-17.7-17.7H624c-9.8,0-17.7,7.9-17.7,17.7
			C606.2,137.3,614.1,145.2,624,145.2C623.9,145.2,623.9,145.2,624,145.2z"/>
		<path class="st1" d="M497.5,145.2h0.8c9.8,0,17.7-7.9,17.7-17.7c0-9.8-7.9-17.7-17.7-17.7h-0.8c-9.8,0-17.7,7.9-17.7,17.7
			C479.8,137.3,487.8,145.2,497.5,145.2z"/>
		<path class="st4" d="M921.4,562.9l-110.5-56.5c-2.5-1.3-5.3-1.9-8.1-1.9h-2.5V100.7c0-29.9-24.2-54.1-54.1-54.1H123.3
			c-29.9,0-54.1,24.2-54.1,54.1v798.9c0,29.8,22.5,54.1,50.1,54.1h683.5c9.8,0,17.7-7.9,17.7-17.7V717.8l17.1,8.8
			c8.7,4.5,19.4,1,23.8-7.7c0,0,0,0,0,0l67.6-132.2C933.5,578,930.1,567.4,921.4,562.9z M123.3,82h622.9c10.3,0,18.7,8.4,18.7,18.7
			v107.7H104.7V100.7C104.7,90.4,113,82,123.3,82z M104.7,899.6V310.2h63.6c9.8,0,17.7-7.9,17.7-17.7c0-9.8-7.9-17.7-17.7-17.7
			h-63.6v-30.9h660.2v260.6h-64.2c-9.4,0-17.1,7.3-17.7,16.6c-26-116.3-129.2-198.9-248.4-199c-140.3,0-254.4,114.2-254.4,254.5
			S294.4,831,434.7,831c3.3,0,6.6-0.1,10-0.2v87.5H119.3C111.4,918.2,104.7,909.7,104.7,899.6z M328.4,590.6l56.5,110.5
			c-68.8-27.6-102.2-105.8-74.6-174.6S416.2,424.3,485,451.9c26,10.5,48.2,28.8,63.2,52.5h-85.8c-2.8,0-5.6,0.7-8.1,1.9l-118.2,60.5
			C327.4,571.3,324,581.9,328.4,590.6C328.4,590.6,328.4,590.6,328.4,590.6z M603.9,563.6c-6.7-88.5-80.5-156.8-169.2-156.8
			C341.2,406.8,265,483,265,576.6c0.1,93.6,76,169.5,169.7,169.6c3.3,0,6.6-0.1,10-0.3v49.4c-3.3,0.2-6.7,0.2-10,0.2
			c-120.8,0-219-98.3-219-219s98.3-219,219-219c117.6,0,214.2,92.9,218.8,210.5C637.4,575.4,618.5,573.8,603.9,563.6z M838,687
			l-27.2-13.9c-8.7-4.5-19.4-1-23.8,7.7c-1.3,2.5-1.9,5.2-1.9,8v229.4H480.1v-46.7h117.3c9.8,0,17.7-7.9,17.7-17.7
			s-7.9-17.7-17.7-17.7H480.1V688.8c0-9.8-7.9-17.7-17.7-17.7c-2.8,0-5.6,0.7-8.1,1.9l-34.8,17.8L368,590.3l98.6-50.4h81.9
			c3.6,17.1,12.4,32.7,25.2,44.7c0.6,0.7,1.3,1.3,2.1,1.9c29.3,26,72.5,28.8,104.9,6.8c0.7-0.4,1.4-0.9,2-1.4
			c17.4-12.5,29.5-31,34-52h81.9l90.9,46.5L838,687z"/>
	</g>
</g>
</svg>
