<svg id="main" xmlns="http://www.w3.org/2000/svg" viewBox="0 0 665.05 700"><defs><style>.cls-1{fill:#fc0;}.cls-2{fill:#eee;}.cls-3{fill:#d8d8e7;}.cls-4{fill:#2f61d5;}.cls-5{fill:#df422b;}.cls-6{fill:#2b8aff;}.cls-7{fill:#6c3;}.cls-8{fill:none;}</style></defs><title>laundry_selected</title><g id="laundry"><g id="selected"><path class="cls-1" d="M168.18,280H726.86V179.22A29.31,29.31,0,0,0,697.64,150H197.4a29.31,29.31,0,0,0-29.22,29.22Z" transform="translate(-167.47 -150)"/><path class="cls-2" d="M726.86,280H168.18V820.78c0,16.07,11.69,29.22,26,29.22H469.68V750.16a191.74,191.74,0,0,1-22.22,1.3c-105,0-190.11-85.12-190.11-190.11s85.12-190.11,190.11-190.11c105.55,0,190.79,85.89,190.09,191.42a54.67,54.67,0,0,0,23.57-45h65.74Z" transform="translate(-167.47 -150)"/><path class="cls-3" d="M637.56,562.66c.69-105.53-84.55-191.42-190.1-191.42-105,0-190.11,85.11-190.11,190.11s85.12,190.11,190.11,190.11a191.74,191.74,0,0,0,22.22-1.3V681.35a122,122,0,1,1,99.76-123.28,54.78,54.78,0,0,0,68.12,4.59Z" transform="translate(-167.47 -150)"/><path class="cls-4" d="M569.44,558.07a121.91,121.91,0,1,0-99.76,123.28V651.53l-40.63,20.78-54.28-106.1,94.91-48.55h81.95A54.59,54.59,0,0,0,569.44,558.07Z" transform="translate(-167.47 -150)"/><path class="cls-1" d="M469.68,517.66h81.95a54.75,54.75,0,1,0,109.49,0h82l88.75,45.4-54.28,106.1-34.47-17.63V850H469.68V651.53L429,672.31l-54.27-106.1Z" transform="translate(-167.47 -150)"/><path class="cls-5" d="M552.66,226.11h.63a13.67,13.67,0,1,0,0-27.34h-.63a13.67,13.67,0,1,0,0,27.34Z" transform="translate(-167.47 -150)"/><path class="cls-6" d="M595.55,226.11h62.77a13.67,13.67,0,0,0,0-27.34H595.55a13.67,13.67,0,1,0,0,27.34Z" transform="translate(-167.47 -150)"/><path class="cls-7" d="M498,226.11h.63a13.67,13.67,0,0,0,0-27.34H498a13.67,13.67,0,0,0,0,27.34Z" transform="translate(-167.47 -150)"/><path class="cls-8" d="M825.08,548.43,739.8,504.8a13.63,13.63,0,0,0-6.23-1.5h-1.9V191.75A41.8,41.8,0,0,0,689.92,150H209.22a41.8,41.8,0,0,0-41.75,41.75v616.5c0,23,17.33,41.75,38.63,41.75H733.57a13.68,13.68,0,0,0,13.68-13.67V668l13.22,6.76a13.67,13.67,0,0,0,18.4-5.94L831,566.83A13.67,13.67,0,0,0,825.08,548.43ZM209.22,177.34h480.7a14.43,14.43,0,0,1,14.41,14.41v83.14H194.82V191.75A14.43,14.43,0,0,1,209.22,177.34Zm-14.4,630.91V353.45h49.09a13.67,13.67,0,0,0,0-27.34H194.82V302.23H704.33V503.3H654.82a13.66,13.66,0,0,0-13.63,12.82A196.49,196.49,0,0,0,449.51,362.59c-108.27,0-196.35,88.09-196.35,196.36S341.24,755.3,449.51,755.3c2.55,0,5.11-.07,7.68-.17v67.52H206.1C200,822.66,194.82,816.06,194.82,808.25Zm172.67-238.4,43.62,85.28a103.62,103.62,0,1,1,126-151.83H470.86a13.66,13.66,0,0,0-6.23,1.5l-91.2,46.65A13.67,13.67,0,0,0,367.49,569.85ZM580.07,549A130.95,130.95,0,0,0,449.51,428C377.32,428,318.58,486.76,318.58,559A131.07,131.07,0,0,0,449.51,689.88c2.56,0,5.12-.1,7.68-.25v38.14c-2.57.12-5.14.19-7.68.19-93.19,0-169-75.82-169-169s75.82-169,169-169A169,169,0,0,1,618.38,552.38,38.79,38.79,0,0,1,580.07,549Zm180.68,95.18-21-10.71a13.68,13.68,0,0,0-19.9,12.17v177H484.53v-36h90.54a13.67,13.67,0,0,0,0-27.34H484.53V645.61a13.67,13.67,0,0,0-19.9-12.17l-26.87,13.74-39.71-77.61,76.1-38.93h63.21a66.21,66.21,0,0,0,19.41,34.51,12.92,12.92,0,0,0,1.59,1.46,66.09,66.09,0,0,0,80.94,5.25,12.27,12.27,0,0,0,1.57-1.1,66.44,66.44,0,0,0,26.2-40.12h63.21l70.17,35.9Z" transform="translate(-167.47 -150)"/></g></g></svg>