<?xml version="1.0" encoding="utf-8"?>
<!-- Generator: Adobe Illustrator 24.0.0, SVG Export Plug-In . SVG Version: 6.00 Build 0)  -->
<svg version="1.1" id="main" xmlns="http://www.w3.org/2000/svg" xmlns:xlink="http://www.w3.org/1999/xlink" x="0px" y="0px"
	 viewBox="0 0 1000 1000" style="enable-background:new 0 0 1000 1000;" xml:space="preserve">
<style type="text/css">
	.st0{fill:#FFFFFF;fill-opacity:0;}
	.st1{fill:#FFCC00;}
	.st2{fill:#EEEEEE;}
	.st3{fill:#D8D8E7;}
	.st4{fill:#2F61D5;}
	.st5{fill:#DF422B;}
	.st6{fill:#2B8AFF;}
	.st7{fill:#66CC33;}
	.st8{fill:none;}
</style>
<title>laundry_selected</title>
<rect id="frame" class="st0" width="1000" height="1000"/>
<g id="laundry">
	<g id="selected">
		<path class="st1" d="M168.2,280h558.7V179.2c0-16.1-13.1-29.2-29.2-29.2H197.4c-16.1,0-29.2,13.1-29.2,29.2V280z"/>
		<path class="st2" d="M726.9,280H168.2v540.8c0,16.1,11.7,29.2,26,29.2h275.5v-99.8c-7.4,0.9-14.8,1.3-22.2,1.3
			c-105,0-190.1-85.1-190.1-190.1s85.1-190.1,190.1-190.1c105.5,0,190.8,85.9,190.1,191.4c14.8-10.2,23.6-27,23.6-45h65.7L726.9,280
			z"/>
		<path class="st3" d="M637.6,562.7c0.7-105.5-84.5-191.4-190.1-191.4c-105,0-190.1,85.1-190.1,190.1s85.1,190.1,190.1,190.1
			c7.4,0,14.8-0.4,22.2-1.3v-68.8c-66.3,12.3-129.9-31.5-142.2-97.8c-12.3-66.3,31.5-129.9,97.8-142.2s129.9,31.5,142.2,97.8
			c1.2,6.2,1.8,12.5,2,18.9C588.3,575.3,616.6,577.2,637.6,562.7L637.6,562.7z"/>
		<path class="st4" d="M569.4,558.1c-1.9-67.3-58-120.3-125.3-118.5s-120.3,58-118.5,125.3c1.9,67.3,58,120.3,125.3,118.5
			c6.3-0.2,12.5-0.8,18.7-2v-29.8L429,672.3l-54.3-106.1l94.9-48.5h82C551.6,533,558.1,547.7,569.4,558.1z"/>
		<path class="st1" d="M469.7,517.7h82c-0.4,30.2,23.8,55.1,54,55.5c30.2,0.4,55.1-23.8,55.5-54c0-0.5,0-1,0-1.5h82l88.8,45.4
			l-54.3,106.1l-34.5-17.6V850H469.7V651.5L429,672.3l-54.3-106.1L469.7,517.7z"/>
		<path class="st5" d="M552.7,226.1h0.6c7.5,0,13.7-6.1,13.7-13.7s-6.1-13.7-13.7-13.7c0,0,0,0,0,0h-0.6c-7.5,0-13.7,6.1-13.7,13.7
			S545.1,226.1,552.7,226.1C552.7,226.1,552.7,226.1,552.7,226.1z"/>
		<path class="st6" d="M595.5,226.1h62.8c7.5,0,13.7-6.1,13.7-13.7c0-7.5-6.1-13.7-13.7-13.7h-62.8c-7.5,0-13.7,6.1-13.7,13.7
			S588,226.1,595.5,226.1C595.5,226.1,595.5,226.1,595.5,226.1z"/>
		<path class="st7" d="M498,226.1h0.6c7.5,0,13.7-6.1,13.7-13.7c0-7.5-6.1-13.7-13.7-13.7H498c-7.5,0-13.7,6.1-13.7,13.7
			C484.3,220,490.5,226.1,498,226.1z"/>
		<path class="st8" d="M825.1,548.4l-85.3-43.6c-1.9-1-4.1-1.5-6.2-1.5h-1.9V191.8c0-23-18.7-41.7-41.8-41.8H209.2
			c-23,0-41.7,18.7-41.8,41.8v616.5c0,23,17.3,41.8,38.6,41.8h527.5c7.6,0,13.7-6.1,13.7-13.7V668l13.2,6.8c6.7,3.4,15,0.8,18.4-5.9
			c0,0,0,0,0,0l52.1-102C834.4,560.1,831.8,551.9,825.1,548.4z M209.2,177.3h480.7c8,0,14.4,6.5,14.4,14.4v83.1H194.8v-83.1
			C194.8,183.8,201.3,177.4,209.2,177.3z M194.8,808.2V353.5h49.1c7.5,0,13.7-6.1,13.7-13.7c0-7.5-6.1-13.7-13.7-13.7h-49.1v-23.9
			h509.5v201.1h-49.5c-7.2,0-13.2,5.6-13.6,12.8c-20.1-89.7-99.7-153.5-191.7-153.5c-108.3,0-196.4,88.1-196.4,196.4
			s88.1,196.3,196.4,196.3c2.5,0,5.1-0.1,7.7-0.2v67.5H206.1C200,822.7,194.8,816.1,194.8,808.2z M367.5,569.8l43.6,85.3
			c-53.1-21.3-78.9-81.7-57.6-134.8s81.7-78.9,134.8-57.6c20.1,8.1,37.2,22.2,48.8,40.5h-66.2c-2.2,0-4.3,0.5-6.2,1.5l-91.2,46.7
			C366.7,554.9,364,563.1,367.5,569.8C367.5,569.8,367.5,569.8,367.5,569.8z M580.1,549c-5.2-68.3-62.1-121-130.6-121
			c-72.2,0-130.9,58.8-130.9,131c0.1,72.3,58.7,130.8,130.9,130.9c2.6,0,5.1-0.1,7.7-0.2v38.1c-2.6,0.1-5.1,0.2-7.7,0.2
			c-93.2,0-169-75.8-169-169s75.8-169,169-169c90.8,0,165.3,71.7,168.9,162.4C605.9,558.1,591.3,556.8,580.1,549z M760.8,644.2
			l-21-10.7c-6.7-3.4-15-0.8-18.4,6c-1,1.9-1.5,4-1.5,6.2v177H484.5v-36h90.5c7.5,0,13.7-6.1,13.7-13.7c0-7.5-6.1-13.7-13.7-13.7
			h-90.5V645.6c0-7.5-6.1-13.7-13.7-13.7c-2.2,0-4.3,0.5-6.2,1.5l-26.9,13.7l-39.7-77.6l76.1-38.9h63.2c2.8,13.2,9.6,25.3,19.4,34.5
			c0.5,0.5,1,1,1.6,1.5c22.6,20,55.9,22.2,80.9,5.2c0.6-0.3,1.1-0.7,1.6-1.1c13.4-9.6,22.8-24,26.2-40.1h63.2l70.2,35.9L760.8,644.2
			z"/>
	</g>
</g>
</svg>
