<svg id="main" xmlns="http://www.w3.org/2000/svg" viewBox="0 0 1000 1000"><defs><style>.cls-1,.cls-2,.cls-3{fill:#fff;}.cls-1{opacity:0;}.cls-2{opacity:0.8;}</style></defs><title>like</title><rect id="frame" class="cls-1" width="1000" height="1000"/><path class="cls-2" d="M201.06,352.35A51.12,51.12,0,0,0,150,403.41V738.87a51.12,51.12,0,0,0,51.06,51.06c26.86-5,124,21.26,124-51.06V403.41C325,330.39,226.31,357,201.06,352.35Z"/><path class="cls-3" d="M733.41,374.23H595.72s21.87-43.75,21.87-116.69c0-87.51-65.63-116.69-94.81-116.69S479,155.42,479,228.36c0,69.3-67.12,125-110.31,153.79V743.51c144.3,66.77,310.74,51.23,332,53.64C848,797.15,817.9,606.69,848.26,510.7,860.6,439.29,805.73,374.23,733.41,374.23Z"/></svg>