<?xml version="1.0" encoding="utf-8"?>
<!-- Generator: Adobe Illustrator 24.0.0, SVG Export Plug-In . SVG Version: 6.00 Build 0)  -->
<svg version="1.1" id="Слой_1" xmlns="http://www.w3.org/2000/svg" xmlns:xlink="http://www.w3.org/1999/xlink" x="0px" y="0px"
	 viewBox="0 0 1000 1000" style="enable-background:new 0 0 1000 1000;" xml:space="preserve">
<style type="text/css">
	.st0{opacity:0.5;}
	.st1{fill:#FF7052;}
	.st2{fill:#7540EE;}
	.st3{fill:#2DC76D;}
	.st4{fill:#FFCC00;}
	.st5{fill:url(#SVGID_1_);}
	.st6{fill:#FBA3D2;}
</style>
<g class="st0">
	<path class="st1" d="M332.9,533.2c-72.9,0-132.9,60-132.9,133.9S260,800,332.9,800s132.9-60,132.9-132.9S406.8,533.2,332.9,533.2z"
		/>
	<path class="st2" d="M667.1,533.2c-73.9,0-132.9,60-132.9,132.9S593.2,800,667.1,800S800,740,800,667.1S740,533.2,667.1,533.2z"/>
	<path class="st3" d="M332.9,200C260,200,200,260,200,332.9s60,132.9,132.9,132.9s132.9-60,132.9-132.9S406.8,200,332.9,200z"/>
	<path class="st4" d="M667.1,466.8c73.9,0,132.9-60,132.9-132.9S740,200,667.1,200s-133.9,60-133.9,132.9S593.2,466.8,667.1,466.8z"
		/>
</g>
<g>
	<g>
		
			<radialGradient id="SVGID_1_" cx="500.341" cy="500" r="234.9355" gradientTransform="matrix(0.9989 0 0 1 0.202 0)" gradientUnits="userSpaceOnUse">
			<stop  offset="0" style="stop-color:#E66DAD"/>
			<stop  offset="0.2136" style="stop-color:#EF84BD"/>
			<stop  offset="0.4459" style="stop-color:#F695C9"/>
			<stop  offset="0.6974" style="stop-color:#FAA0D0"/>
			<stop  offset="1" style="stop-color:#FBA3D2"/>
		</radialGradient>
		<path class="st5" d="M426.3,508.3l25-10c-36.1-12.8-63.6-28-82.5-45.8c-23.9-22.8-35.8-51.1-35.8-85c0-20,5.4-39.4,16.2-58.3
			c10.8-18.9,24.6-34.6,41.3-47.1c16.7-12.5,35.1-21.8,55.4-27.9c20.3-6.1,41.3-9.2,62.9-9.2c42.8,0,79.2,10,109.2,30
			c35,23.3,52.5,55.3,52.5,95.8c0,27.8-10,50.6-30,68.3c-12.2,10.6-34.5,23.3-66.7,38.3l-25,12.5c38.3,9.5,69.7,25.3,94.2,47.5
			c28.9,26.7,43.3,58.1,43.3,94.2c0,21.7-4.9,42.8-14.6,63.3c-9.7,20.6-23.5,38.6-41.2,54.2c-17.8,15.6-38.6,27.1-62.5,34.6
			c-23.9,7.5-49.2,11.3-75.8,11.3c-45.6,0-85-12.2-118.3-36.7C356,725,341.5,708.9,330.4,690c-11.1-18.9-16.7-38.6-16.7-59.2
			c0-24.4,7.1-45.7,21.3-63.8C349.2,549,379.6,529.5,426.3,508.3z M499.2,759.2c21,0,39.9-3.3,56.5-10c16.6-6.7,31.3-17.5,44-32.5
			c19.4-22.8,29.1-49.2,29.1-79.2c0-23.9-6.4-44.4-19.1-61.7c-12.7-17.2-30.5-31.7-53.2-43.3c-6.7-3.3-19.9-8.5-39.9-15.4
			c-19.9-6.9-32.7-10.4-38.2-10.4c-3.9,0-9.8,1.8-17.9,5.4c-8,3.6-15.4,7.9-22,12.9c-22.7,14.5-39.6,30.7-50.7,48.7
			c-11.1,18.1-16.6,39.9-16.6,65.4c0,33.9,11.6,62.5,34.9,85.8c11.6,12.2,25.3,21,41.1,26.2C463,756.5,480.3,759.2,499.2,759.2z
			 M523.4,459.2c5.5,0,13-2.1,22.5-6.2c9.4-4.2,18.3-8.8,26.6-13.8c31.1-21.1,46.6-50.3,46.6-87.5c0-33.3-11.5-60.1-34.5-80.4
			c-23-20.3-51.5-30.4-85.3-30.4c-16.1,0-30.5,2.1-43.3,6.2c-12.8,4.2-24.3,11-34.5,20.4c-10.3,9.5-18.7,21-25.4,34.6
			c-6.7,13.6-10,26.8-10,39.6c0,23.3,6.9,43.6,20.8,60.8c12.2,15.6,29.7,28.3,52.4,38.3c6.7,2.8,17.5,6.5,32.5,11.2
			C506.8,456.8,517.3,459.2,523.4,459.2z"/>
	</g>
	<g>
		<path class="st6" d="M426.3,508.3l25-10c24.2-10.8,42.7-19.8,55.2-26.1c11.4-5.7,14.4-7.5,24.1-12c18.4-8.6,24.4-10.2,35.2-16.7
			c1.7-1,12.8-7.8,22.2-16.7c18.6-17.6,26.8-40.1,30.6-56.5c3.2,2.9,28,25.2,22.2,44.4c-3.1,10.2-15.9,17-41.7,30.6
			c-10.1,5.4-18.9,9.4-25.3,12.1l-25,12.5c-19.7,9.1-41.2,19-63.6,30c-8.7,4.3-24.8,11.2-42.5,22.1c-7.5,4.6-15.5,10-24.1,16.8
			c-5,4-9.8,8.2-13,11.1c-22,20.7-19.5,36.7-38,51.9c-1.4,1.2-21.1,17-30.6,11.1c-9.7-6-7-33.5,5.6-51.9
			c4.7-6.8,12.2-12.5,27.8-23.1c20.2-13.9,35.7-21.2,44.4-25C419.4,511,423.4,509.4,426.3,508.3z"/>
	</g>
</g>
</svg>
