<?xml version="1.0" encoding="utf-8"?>
<!-- Generator: Adobe Illustrator 22.1.0, SVG Export Plug-In . SVG Version: 6.00 Build 0)  -->
<svg version="1.1" id="Capa_1" xmlns="http://www.w3.org/2000/svg" xmlns:xlink="http://www.w3.org/1999/xlink" x="0px" y="0px"
	 viewBox="0 0 385 385" style="enable-background:new 0 0 385 385;" xml:space="preserve">
<style type="text/css">
	.st0{fill:#939393;}
</style>
<g>
	<g id="Menu_1_">
		<path class="st0" d="M385,108.3c0-6.6-5.4-12-12-12H12c-6.6,0-12,5.4-12,12s5.4,12,12,12h360.9C379.6,120.3,385,114.9,385,108.3z"
			/>
		<path class="st0" d="M0,192.5c0,6.6,5.4,12,12,12h360.9c6.6,0,12-5.4,12-12s-5.4-12-12-12H12C5.4,180.5,0,185.8,0,192.5z"/>
		<path class="st0" d="M0,276.7c0,6.6,5.4,12,12,12h240.6c6.6,0,12-5.4,12-12s-5.4-12-12-12H12C5.4,264.7,0,270.1,0,276.7z"/>
	</g>
</g>
</svg>
