<?xml version="1.0" encoding="utf-8"?>
<!-- Generator: Adobe Illustrator 22.1.0, SVG Export Plug-In . SVG Version: 6.00 Build 0)  -->
<svg version="1.1" id="Слой_1" xmlns="http://www.w3.org/2000/svg" xmlns:xlink="http://www.w3.org/1999/xlink" x="0px" y="0px"
	 viewBox="0 0 1000 1000" style="enable-background:new 0 0 1000 1000;" xml:space="preserve">
<style type="text/css">
	.st0{fill:#767676;}
</style>
<g>
	<path class="st0" d="M332.9,533.2c-72.9,0-132.9,60-132.9,133.9S260,800,332.9,800s132.9-60,132.9-132.9S406.8,533.2,332.9,533.2z"
		/>
	<path class="st0" d="M667.1,533.2c-73.9,0-132.9,60-132.9,132.9S593.2,800,667.1,800S800,740,800,667.1S740,533.2,667.1,533.2z"/>
	<path class="st0" d="M332.9,200C260,200,200,260,200,332.9s60,132.9,132.9,132.9s132.9-60,132.9-132.9S406.8,200,332.9,200z"/>
	<path class="st0" d="M667.1,466.8c73.9,0,132.9-60,132.9-132.9S740,200,667.1,200s-133.9,60-133.9,132.9S593.2,466.8,667.1,466.8z"
		/>
</g>
</svg>
