<svg id="main" xmlns="http://www.w3.org/2000/svg" viewBox="0 0 1000 1000"><defs><style>.cls-1{fill:#fff;opacity:0;}.cls-2{fill:#d5d5d5;}</style></defs><title>move</title><rect id="frame" class="cls-1" width="1000" height="1000"/><path class="cls-2" d="M801,466.32l-18.13-72.51a11,11,0,0,0,8.68-10.72V371.4a46.09,46.09,0,0,0-46-46H663V301.25a22.68,22.68,0,0,0-22.66-22.65H219.41a22.67,22.67,0,0,0-22.65,22.65V500a11,11,0,0,0,21.92,0V301.25a.73.73,0,0,1,.73-.73H640.29a.73.73,0,0,1,.73.73V500a11,11,0,1,0,21.92,0V487.58H792.3a35.86,35.86,0,0,1,34.06,24.84H792.27a11,11,0,0,0-11,11v23.38a34.39,34.39,0,0,0,34.35,34.34h12.42v48.22H799.42a69.4,69.4,0,0,0-131.2,0h-5.28V546.77a11,11,0,1,0-21.92,0v82.56H413.62a69.4,69.4,0,0,0-131.2,0h-63a.73.73,0,0,1-.73-.73V604.49h47.5a11,11,0,0,0,0-21.92H161a11,11,0,0,0,0,21.92h35.8V628.6a22.68,22.68,0,0,0,22.66,22.65h59.2c0,.25,0,.49,0,.73a69.42,69.42,0,1,0,138.83,0c0-.24,0-.48,0-.73h247c0,.25,0,.49,0,.73a69.42,69.42,0,1,0,138.83,0c0-.24,0-.48,0-.73H839a11,11,0,0,0,11-11V523.38A57.82,57.82,0,0,0,801,466.32Zm-138-119h82.56a24.14,24.14,0,0,1,24.12,24.11v.73H663Zm0,118.37V394.05h97.39l17.9,71.61ZM348,699.48A47.5,47.5,0,1,1,395.51,652,47.55,47.55,0,0,1,348,699.48Zm385.8,0A47.5,47.5,0,1,1,781.32,652,47.54,47.54,0,0,1,733.82,699.48Zm94.26-140.29H815.66a12.43,12.43,0,0,1-12.42-12.42V534.34h24.84v24.85Z"/><path class="cls-2" d="M348,629.33A22.66,22.66,0,1,0,370.67,652,22.68,22.68,0,0,0,348,629.33Z"/><path class="cls-2" d="M733.82,629.33A22.66,22.66,0,1,0,756.47,652,22.68,22.68,0,0,0,733.82,629.33Z"/><path class="cls-2" d="M605.22,582.57H441.55a11,11,0,1,0,0,21.92H605.22a11,11,0,0,0,0-21.92Z"/><path class="cls-2" d="M324.64,535.81H184.34a11,11,0,1,0,0,21.92h140.3a11,11,0,0,0,0-21.92Z"/><path class="cls-2" d="M531.13,387a11,11,0,0,0-15.5,0L418.16,484.5l-50.7-50.7A11,11,0,0,0,352,449.3l58.45,58.45a11,11,0,0,0,15.5,0L531.13,402.53A11,11,0,0,0,531.13,387Z"/></svg>