<?xml version="1.0" encoding="utf-8"?>
<!-- Generator: Adobe Illustrator 24.0.0, SVG Export Plug-In . SVG Version: 6.00 Build 0)  -->
<svg version="1.1" id="Layer_1" xmlns="http://www.w3.org/2000/svg" xmlns:xlink="http://www.w3.org/1999/xlink" x="0px" y="0px"
	 viewBox="0 0 637.7 637.8" style="enable-background:new 0 0 637.7 637.8;" xml:space="preserve">
<style type="text/css">
	.st0{fill:none;stroke:#009540;stroke-width:5;stroke-linecap:round;stroke-linejoin:round;stroke-miterlimit:10;}
	.st1{fill:none;stroke:#7540EE;stroke-width:5;stroke-linecap:round;stroke-linejoin:round;stroke-miterlimit:10;}
	.st2{fill:none;stroke:#2DC76D;stroke-width:5;stroke-linecap:round;stroke-linejoin:round;stroke-miterlimit:10;}
	.st3{fill:none;stroke:#FF7052;stroke-width:5;stroke-linecap:round;stroke-linejoin:round;stroke-miterlimit:10;}
	.st4{fill:none;stroke:#FFCC00;stroke-width:5;stroke-linecap:round;stroke-linejoin:round;stroke-miterlimit:10;}
</style>
<g>
	<line class="st0" x1="599.9" y1="144.7" x2="584.6" y2="130.4"/>
	<line class="st0" x1="585.1" y1="145.1" x2="599.4" y2="129.9"/>
</g>
<g>
	<line class="st0" x1="494.3" y1="392.3" x2="479" y2="378"/>
	<line class="st0" x1="479.5" y1="392.8" x2="493.8" y2="377.5"/>
</g>
<g>
	<line class="st0" x1="482.5" y1="530.6" x2="467.2" y2="516.3"/>
	<line class="st0" x1="467.7" y1="531.1" x2="482" y2="515.8"/>
</g>
<polygon class="st1" points="310.8,389.9 300.3,371.8 289.8,389.9 279.4,408.1 300.3,408.1 321.3,408.1 "/>
<polygon class="st1" points="431.1,458.1 420.6,439.9 410.2,458.1 399.7,476.3 420.7,476.3 441.6,476.3 "/>
<polygon class="st1" points="500.4,318.7 505.8,298.4 485.5,303.9 465.3,309.3 480.1,324.1 494.9,338.9 "/>
<polygon class="st1" points="141.1,521.3 146.5,501 126.2,506.5 106,511.9 120.8,526.7 135.7,541.6 "/>
<polygon class="st1" points="521.6,106 539.8,95.5 521.6,85.1 503.4,74.6 503.4,95.5 503.5,116.5 "/>
<path class="st2" d="M381,281.2c0,8.8-7.1,15.9-15.9,15.9c-8.8,0-15.9-7.1-15.9-15.9c0-8.8,7.1-15.9,15.9-15.9
	C373.8,265.3,381,272.4,381,281.2z"/>
<path class="st2" d="M310.7,573.3c0,8.8-7.1,15.9-15.9,15.9c-8.8,0-15.9-7.1-15.9-15.9c0-8.8,7.1-15.9,15.9-15.9
	C303.6,557.4,310.7,564.5,310.7,573.3z"/>
<path class="st3" d="M353.3,549.5c0-8.8,7.1-15.9,15.9-15.9c8.8,0,15.9,7.1,15.9,15.9"/>
<path class="st3" d="M76.8,573.2c-8.8,0-15.9-7.1-15.9-15.8c0-8.7,7.1-15.8,15.9-15.8"/>
<path class="st2" d="M575.5,424c0,8.8-7.1,15.9-15.9,15.9c-8.8,0-15.9-7.1-15.9-15.9c0-8.8,7.1-15.9,15.9-15.9
	C568.3,408.1,575.5,415.2,575.5,424z"/>
<rect x="531.5" y="170.3" class="st4" width="31.7" height="31.7"/>
<rect x="531.5" y="541.6" class="st4" width="31.7" height="31.7"/>
<g>
	<path class="st3" d="M354.7,357.3c-6.9,0-5.7-12.3-14.5-12.3"/>
	<path class="st3" d="M383.7,357.3c-6.9,0-5.7-12.3-14.5-12.3"/>
	<path class="st3" d="M354.7,357.3c6.9,0,5.7-12.3,14.5-12.3"/>
	<path class="st3" d="M398.3,345.1"/>
	<path class="st3" d="M383.7,357.3c6.9,0,5.7-12.3,14.5-12.3"/>
</g>
<g>
	<path class="st3" d="M437.5,585.6c-6.9,0-5.7-12.3-14.5-12.3"/>
	<path class="st3" d="M466.5,585.6c-6.9,0-5.7-12.3-14.5-12.3"/>
	<path class="st3" d="M437.5,585.6c6.9,0,5.7-12.3,14.5-12.3"/>
	<path class="st3" d="M481.1,573.3"/>
	<path class="st3" d="M466.5,585.6c6.9,0,5.7-12.3,14.5-12.3"/>
</g>
<g>
	<path class="st3" d="M477.1,256.5c-6.9,0-5.7-12.3-14.5-12.3"/>
	<path class="st3" d="M506.2,256.5c-6.9,0-5.7-12.3-14.5-12.3"/>
	<path class="st3" d="M477.1,256.5c6.9,0,5.7-12.3,14.5-12.3"/>
	<path class="st3" d="M520.7,244.3"/>
	<path class="st3" d="M506.2,256.5c6.9,0,5.7-12.3,14.5-12.3"/>
</g>
<g>
	<path class="st3" d="M509.6,472.6c0,6.9-12.3,5.7-12.3,14.5"/>
	<path class="st3" d="M509.6,443.6c0,6.9-12.3,5.7-12.3,14.5"/>
	<path class="st3" d="M509.6,472.6c0-6.9-12.3-5.7-12.3-14.5"/>
	<path class="st3" d="M497.3,429"/>
	<path class="st3" d="M509.6,443.6c0-6.9-12.3-5.7-12.3-14.5"/>
</g>
<line class="st4" x1="389.5" y1="389.9" x2="425.4" y2="389.9"/>
<line class="st4" x1="533.6" y1="38.6" x2="569.4" y2="38.6"/>
<line class="st4" x1="179.9" y1="573.2" x2="215.7" y2="573.2"/>
<line class="st3" x1="272" y1="503.9" x2="297.3" y2="478.6"/>
<line class="st3" x1="551.5" y1="324" x2="576.9" y2="298.6"/>
<path class="st2" d="M363.4,474.9c-2.9,1.8-6.8,1-8.6-2c-1.8-2.9-1-6.8,2-8.6c2.9-1.8,6.8-1,8.6,2
	C367.3,469.1,366.4,473,363.4,474.9z"/>
<path class="st2" d="M314.1,302.4c-2.9,1.8-6.8,1-8.6-2c-1.8-2.9-1-6.8,2-8.6c2.9-1.8,6.8-1,8.6,2
	C317.9,296.7,317,300.6,314.1,302.4z"/>
<path class="st2" d="M497.2,155.1c-2.9,1.8-6.8,1-8.6-2c-1.8-2.9-1-6.8,2-8.6c2.9-1.8,6.8-1,8.6,2
	C501,149.4,500.1,153.2,497.2,155.1z"/>
<path class="st2" d="M585.7,378.4c-2.9,1.8-6.8,1-8.6-2c-1.8-2.9-1-6.8,2-8.6c2.9-1.8,6.8-1,8.6,2
	C589.5,372.7,588.6,376.5,585.7,378.4z"/>
</svg>
