<svg id="Слой_1" data-name="Слой 1" xmlns="http://www.w3.org/2000/svg" xmlns:xlink="http://www.w3.org/1999/xlink" viewBox="0 0 1000 1000"><defs><style>.cls-1{fill:#fff;opacity:0;}.cls-2{opacity:0.2;}.cls-3{fill:#004ee1;}.cls-4{fill:#ff8100;}.cls-5{fill:url(#Безымянный_градиент_92);}.cls-6{fill:#fba3d2;}</style><radialGradient id="Безымянный_градиент_92" cx="500.34" cy="500" r="253.73" gradientTransform="translate(0.2)" gradientUnits="userSpaceOnUse"><stop offset="0" stop-color="#e66dad"/><stop offset="0.21" stop-color="#ef84bd"/><stop offset="0.45" stop-color="#f695c9"/><stop offset="0.7" stop-color="#faa0d0"/><stop offset="1" stop-color="#fba3d2"/></radialGradient></defs><title>psamcs_logo_colored_8</title><rect class="cls-1" width="1000" height="1000"/><g class="cls-2"><path d="M216.71,307.14A310.86,310.86,0,0,1,435.8,189H590.11c-35.12,61.34-73.77,106.59-120,138C398.58,345,317.44,337.27,216.71,307.14Z"/><path d="M370.58,584.11c15.2,61,10.78,129.08-11.17,210.64A312.42,312.42,0,0,1,157.64,431.11C258.81,474.68,327.85,522.4,370.58,584.11Z"/><path d="M850,189v340.4C796.65,497.86,756.62,463,728.23,422c-16.59-66.48-9.81-141.4,17.51-233Z"/><path d="M850,690V811H511.8C546,752.77,583.65,709.48,628.38,679.09,692.25,663.08,763.75,667.48,850,690Z"/><path class="cls-3" d="M643,189c-20.12,32.76-40.42,60.81-61.58,84.46-35.3,26-71.85,43.7-111.3,53.57,46.22-31.44,84.87-76.69,120-138Z"/><path class="cls-3" d="M370.58,584.11c-42.73-61.71-111.77-109.43-212.94-153a308.15,308.15,0,0,1,15.44-49c59.18,30.08,106.61,59.86,143.4,91.69C343,508.76,360.82,545,370.58,584.11Z"/><path class="cls-3" d="M628.38,679.09C583.65,709.48,546,752.77,511.8,811H459.11c18.89-30.15,38-56.2,57.84-78.35C552.3,706.65,588.88,689,628.38,679.09Z"/><path class="cls-3" d="M850,529.39v52.18c-25.66-16.07-48.16-32.36-67.67-49.25-26.51-35-44.35-71.18-54.1-110.32C756.62,463,796.65,497.86,850,529.39Z"/><path class="cls-4" d="M581.42,273.45c-62.77,70.14-133,101.52-228.06,101.72-48.27.1-102.92-7.85-166.22-22.86a314.54,314.54,0,0,1,29.57-45.17C317.44,337.27,398.58,345,470.12,327,509.57,317.15,546.12,299.46,581.42,273.45Z"/><path class="cls-4" d="M418.11,699.47c-.37,32.63-4.61,68.23-12.39,107.5a310.5,310.5,0,0,1-46.31-12.22c21.95-81.56,26.37-149.64,11.17-210.64-9.76-39.14-27.6-75.35-54.1-110.32C388,535.62,419.2,605.15,418.11,699.47Z"/><path class="cls-4" d="M850,641v49c-86.25-22.5-157.75-26.9-221.62-10.89C588.88,689,552.3,706.65,517,732.66c62.84-70.14,133.2-101.51,228.32-101.72C777.17,630.87,811.87,634.31,850,641Z"/><path class="cls-4" d="M782.33,532.32C710.84,470.49,679.6,401,680.69,306.65c.39-35.41,5.37-74.33,14.46-117.66h50.59c-27.32,91.61-34.1,166.53-17.51,233C738,461.14,755.82,497.35,782.33,532.32Z"/><path class="cls-4" d="M418.11,699.47c-.37,32.63-4.61,68.23-12.39,107.5a310.5,310.5,0,0,1-46.31-12.22c21.95-81.56,26.37-149.64,11.17-210.64-9.76-39.14-27.6-75.35-54.1-110.32C388,535.62,419.2,605.15,418.11,699.47Z"/><path class="cls-4" d="M417.84,699.52c-.38,32.63-32.33-54.36-47.54-115.36-9.75-39.14-27.59-75.35-54.1-110.32C387.69,535.67,418.93,605.2,417.84,699.52Z"/><path class="cls-3" d="M628.61,679.08C583.89,709.47,546.25,752.76,512,811H459.34c18.89-30.15,38-56.2,57.85-78.35C552.53,706.64,589.11,689,628.61,679.08Z"/><path class="cls-4" d="M581.35,273.66c-62.76,70.14-133,101.51-228.06,101.72-48.26.1-102.92-7.85-166.22-22.87a313.11,313.11,0,0,1,29.58-45.16c100.72,30.13,181.86,37.83,253.4,19.88C509.5,317.36,546.05,299.67,581.35,273.66Z"/></g><path class="cls-5" d="M420.35,509l27-10.8q-58.52-20.7-89.1-49.5-38.7-36.9-38.7-91.8,0-32.4,17.55-63a165.9,165.9,0,0,1,44.55-50.85A190.68,190.68,0,0,1,441.5,212.9a234.2,234.2,0,0,1,67.95-9.9q69.3,0,117.9,32.4,56.7,37.8,56.7,103.5,0,45-32.4,73.8-19.8,17.1-72,41.4l-27,13.5q62.1,15.31,101.7,51.3,46.78,43.2,46.8,101.7A158.43,158.43,0,0,1,685.4,689a178.61,178.61,0,0,1-44.55,58.5q-28.82,25.21-67.5,37.35A271.86,271.86,0,0,1,491.45,797q-73.8,0-127.8-39.6a176.54,176.54,0,0,1-46.8-52.2q-18-30.59-18-63.9,0-39.6,22.95-68.85T420.35,509ZM499.1,779.9q34.08,0,61-10.8T607.65,734q31.38-36.9,31.4-85.5,0-38.68-20.64-66.6T561,535.1q-10.77-5.4-43.07-16.65T476.67,507.2q-6.29,0-19.28,5.85a124,124,0,0,0-23.78,14q-36.78,23.41-54.72,52.65T361,650.3q0,54.9,37.67,92.7A107.6,107.6,0,0,0,443,771.35Q468.61,779.92,499.1,779.9Zm26.18-324q9,0,24.28-6.75a259.87,259.87,0,0,0,28.77-14.85q50.32-34.2,50.34-94.5,0-54-37.31-86.85T499.21,220.1q-26.08,0-46.75,6.75a100.85,100.85,0,0,0-37.31,22.05,124.4,124.4,0,0,0-27.42,37.35Q376.95,308.31,376.94,329q0,37.8,22.48,65.7,19.77,25.2,56.64,41.4,10.79,4.51,35.06,12.15T525.28,455.9Z"/><path class="cls-6" d="M420.35,509l27-10.8C473.5,486.55,493.44,476.83,507,470c12.32-6.21,15.59-8.11,26-13,19.9-9.34,26.38-11,38-18a151,151,0,0,0,24-18c20-19,28.93-43.32,33-61,3.49,3.08,30.28,27.25,24,48-3.33,11-17.22,18.34-45,33-11,5.78-20.43,10.11-27.35,13.1l-27,13.5c-21.24,9.81-44.54,20.53-68.65,32.4-9.35,4.6-26.79,12.08-45.95,23.83A256.42,256.42,0,0,0,412,542c-5.43,4.32-10.63,8.83-14,12-23.71,22.35-21.05,39.63-41,56-1.54,1.26-22.76,18.38-33,12-10.43-6.49-7.57-36.13,6-56,5-7.38,13.21-13.46,30-25,21.79-15,38.57-22.91,48-27C413,511.83,417.26,510.16,420.35,509Z"/></svg>