<?xml version="1.0" encoding="utf-8"?>
<!-- Generator: Adobe Illustrator 24.0.0, SVG Export Plug-In . SVG Version: 6.00 Build 0)  -->
<svg version="1.1" id="Слой_1" xmlns="http://www.w3.org/2000/svg" xmlns:xlink="http://www.w3.org/1999/xlink" x="0px" y="0px"
	 viewBox="0 0 1000 1000" style="enable-background:new 0 0 1000 1000;" xml:space="preserve">
<style type="text/css">
	.st0{fill:none;}
	.st1{fill:none;stroke:#D5D5D5;stroke-width:10;stroke-miterlimit:10;}
</style>
<title>psamcs_logo_grey</title>
<rect class="st0" width="1000" height="1000"/>
<path class="st1" d="M216.8,307.1c53.5-68.2,132.9-111,219.3-118.1h154.5c-35.2,61.3-73.8,106.6-120.1,138
	C398.8,345,317.6,337.3,216.8,307.1z"/>
<path class="st1" d="M370.6,584.1c15.2,61,10.8,129.1-11.2,210.6C209.5,742.4,122.7,586,157.6,431.1
	C258.8,474.7,327.9,522.4,370.6,584.1z"/>
<path class="st1" d="M850,189v340.4C796.7,497.9,756.6,463,728.2,422c-16.6-66.5-9.8-141.4,17.5-233H850z"/>
<path class="st1" d="M850,690v121H511.8c34.2-58.2,71.9-101.5,116.6-131.9C692.2,663.1,763.8,667.5,850,690z"/>
<path class="st1" d="M643.5,189c-20.1,32.8-40.5,60.8-61.7,84.5c-35.3,26-71.9,43.7-111.4,53.6c46.3-31.4,85-76.7,120.1-138
	L643.5,189z"/>
<path class="st1" d="M370.6,584.1c-42.7-61.7-111.8-109.4-212.9-153c3.8-16.7,8.9-33.1,15.4-49c59.2,30.1,106.6,59.9,143.4,91.7
	C343,508.8,360.8,545,370.6,584.1z"/>
<path class="st1" d="M628.4,679.1C583.7,709.5,546,752.8,511.8,811h-52.7c18.9-30.2,38-56.2,57.8-78.3
	C552.3,706.7,588.9,689,628.4,679.1z"/>
<path class="st1" d="M850,529.4v52.2c-25.7-16.1-48.2-32.4-67.7-49.2c-26.5-35-44.3-71.2-54.1-110.3
	C756.6,463,796.7,497.9,850,529.4z"/>
<path class="st1" d="M581.8,273.5C519,343.6,448.6,375,353.5,375.2c-48.3,0.1-103-7.9-166.4-22.9c8.6-15.9,18.5-31,29.6-45.2
	c100.8,30.1,182,37.9,253.7,19.9C509.9,317.1,546.5,299.5,581.8,273.5z"/>
<path class="st1" d="M418.1,699.5c-0.4,32.6-4.6,68.2-12.4,107.5c-15.7-2.9-31.2-7-46.3-12.2c22-81.6,26.4-149.6,11.2-210.6
	c-9.8-39.1-27.6-75.4-54.1-110.3C388,535.6,419.2,605.2,418.1,699.5z"/>
<path class="st1" d="M850,641v49c-86.2-22.5-157.8-26.9-221.6-10.9c-39.5,9.9-76.1,27.5-111.4,53.5
	c62.8-70.1,133.2-101.5,228.3-101.7C777.2,630.9,811.9,634.3,850,641z"/>
<path class="st1" d="M782.3,532.3C710.8,470.5,679.6,401,680.7,306.6c0.4-35.4,5.4-74.3,14.5-117.7h50.6
	c-27.3,91.6-34.1,166.5-17.5,233C738,461.1,755.8,497.4,782.3,532.3z"/>
</svg>
