<?xml version="1.0" encoding="utf-8"?>
<!-- Generator: Adobe Illustrator 24.0.0, SVG Export Plug-In . SVG Version: 6.00 Build 0)  -->
<svg version="1.1" id="Слой_1" xmlns="http://www.w3.org/2000/svg" xmlns:xlink="http://www.w3.org/1999/xlink" x="0px" y="0px"
	 viewBox="0 0 1000 1000" style="enable-background:new 0 0 1000 1000;" xml:space="preserve">
<style type="text/css">
	.st0{fill:none;}
	.st1{fill:none;stroke:#FFFFFF;stroke-width:10;stroke-miterlimit:10;}
	.st2{fill:url(#SVGID_1_);}
	.st3{fill:#FBA3D2;}
</style>
<title>psamcs_logo</title>
<rect class="st0" width="1000" height="1000"/>
<path class="st1" d="M216.8,307.1c53.5-68.2,133-111,219.3-118.1h154.5c-35.2,61.3-73.8,106.6-120.1,138
	C398.8,345,317.6,337.3,216.8,307.1z"/>
<path class="st1" d="M370.6,584.1c15.2,61,10.8,129.1-11.2,210.6C209.5,742.4,122.7,586,157.6,431.1
	C258.8,474.7,327.9,522.4,370.6,584.1z"/>
<path class="st1" d="M850,189v340.4C796.7,497.9,756.6,463,728.2,422c-16.6-66.5-9.8-141.4,17.5-233H850z"/>
<path class="st1" d="M850,690v121H511.8c34.2-58.2,71.9-101.5,116.6-131.9C692.2,663.1,763.8,667.5,850,690z"/>
<path class="st1" d="M643.5,189c-20.1,32.8-40.5,60.8-61.7,84.5c-35.3,26-71.9,43.7-111.4,53.6c46.3-31.4,85-76.7,120.1-138
	L643.5,189z"/>
<path class="st1" d="M370.6,584.1c-42.7-61.7-111.8-109.4-212.9-153c3.8-16.7,8.9-33.1,15.4-49c59.2,30.1,106.6,59.9,143.4,91.7
	C343,508.8,360.8,545,370.6,584.1z"/>
<path class="st1" d="M628.4,679.1C583.7,709.5,546,752.8,511.8,811h-52.7c18.9-30.2,38-56.2,57.8-78.3
	C552.3,706.7,588.9,689,628.4,679.1z"/>
<path class="st1" d="M850,529.4v52.2c-25.7-16.1-48.2-32.4-67.7-49.2c-26.5-35-44.3-71.2-54.1-110.3
	C756.6,463,796.7,497.9,850,529.4z"/>
<path class="st1" d="M581.8,273.5C519,343.6,448.6,375,353.5,375.2c-48.3,0.1-103-7.9-166.4-22.9c8.6-15.9,18.5-31,29.6-45.2
	c100.8,30.1,182,37.9,253.7,19.9C509.9,317.1,546.5,299.5,581.8,273.5z"/>
<path class="st1" d="M418.1,699.5c-0.4,32.6-4.6,68.2-12.4,107.5c-15.7-2.9-31.2-7-46.3-12.2c22-81.6,26.4-149.6,11.2-210.6
	c-9.8-39.1-27.6-75.4-54.1-110.3C388,535.6,419.2,605.2,418.1,699.5z"/>
<path class="st1" d="M850,641v49c-86.2-22.5-157.8-26.9-221.6-10.9c-39.5,9.9-76.1,27.5-111.4,53.5
	c62.8-70.1,133.2-101.5,228.3-101.7C777.2,630.9,811.9,634.3,850,641z"/>
<path class="st1" d="M782.3,532.3C710.8,470.5,679.6,401,680.7,306.6c0.4-35.4,5.4-74.3,14.5-117.7h50.6
	c-27.3,91.6-34.1,166.5-17.5,233C738,461.1,755.8,497.4,782.3,532.3z"/>
<g>
	<g>
		
			<radialGradient id="SVGID_1_" cx="500.341" cy="500" r="253.7308" gradientTransform="matrix(0.9989 0 0 1 0.202 0)" gradientUnits="userSpaceOnUse">
			<stop  offset="0" style="stop-color:#E66DAD"/>
			<stop  offset="0.2136" style="stop-color:#EF84BD"/>
			<stop  offset="0.4459" style="stop-color:#F695C9"/>
			<stop  offset="0.6974" style="stop-color:#FAA0D0"/>
			<stop  offset="1" style="stop-color:#FBA3D2"/>
		</radialGradient>
		<path class="st2" d="M420.4,509l27-10.8c-39-13.8-68.7-30.3-89.1-49.5c-25.8-24.6-38.7-55.2-38.7-91.8c0-21.6,5.9-42.6,17.5-63
			c11.7-20.4,26.6-37.4,44.6-50.9s37.9-23.5,59.9-30.1c21.9-6.6,44.6-9.9,67.9-9.9c46.2,0,85.5,10.8,117.9,32.4
			c37.8,25.2,56.7,59.7,56.7,103.5c0,30-10.8,54.6-32.4,73.8c-13.2,11.4-37.2,25.2-72,41.4l-27,13.5c41.4,10.2,75.3,27.3,101.7,51.3
			c31.2,28.8,46.8,62.7,46.8,101.7c0,23.4-5.3,46.2-15.8,68.4c-10.5,22.2-25.4,41.7-44.5,58.5c-19.2,16.8-41.7,29.2-67.5,37.3
			c-25.8,8.1-53.1,12.2-81.9,12.2c-49.2,0-91.8-13.2-127.8-39.6c-19.2-14.4-34.8-31.8-46.8-52.2c-12-20.4-18-41.7-18-63.9
			c0-26.4,7.6-49.3,23-68.9C337.1,553,369.9,531.8,420.4,509z M499.1,779.9c22.7,0,43.1-3.6,61-10.8c17.9-7.2,33.8-18.9,47.5-35.1
			c20.9-24.6,31.4-53.1,31.4-85.5c0-25.8-6.9-48-20.6-66.6c-13.8-18.6-32.9-34.2-57.4-46.8c-7.2-3.6-21.5-9.1-43.1-16.7
			c-21.5-7.5-35.3-11.2-41.3-11.2c-4.2,0-10.6,2-19.3,5.9c-8.7,3.9-16.6,8.5-23.8,14c-24.5,15.6-42.8,33.2-54.7,52.6
			c-12,19.5-17.9,43.1-17.9,70.7c0,36.6,12.6,67.5,37.7,92.7c12.6,13.2,27.4,22.7,44.4,28.3C460.1,777.1,478.8,779.9,499.1,779.9z
			 M525.3,455.9c6,0,14.1-2.2,24.3-6.8c10.2-4.5,19.8-9.5,28.8-14.9c33.6-22.8,50.3-54.3,50.3-94.5c0-36-12.4-64.9-37.3-86.9
			c-24.9-21.9-55.6-32.9-92.1-32.9c-17.4,0-33,2.2-46.7,6.8c-13.8,4.5-26.2,11.9-37.3,22.1c-11.1,10.2-20.2,22.7-27.4,37.4
			c-7.2,14.7-10.8,29-10.8,42.8c0,25.2,7.5,47.1,22.5,65.7c13.2,16.8,32.1,30.6,56.6,41.4c7.2,3,18.9,7.1,35.1,12.1
			C507.3,453.4,518.7,455.9,525.3,455.9z"/>
	</g>
	<g>
		<path class="st3" d="M420.4,509l27-10.8c26.2-11.7,46.1-21.4,59.6-28.2c12.3-6.2,15.6-8.1,26-13c19.9-9.3,26.4-11,38-18
			c1.9-1.1,13.9-8.4,24-18c20.1-19,28.9-43.3,33-61c3.5,3.1,30.3,27.3,24,48c-3.3,11-17.2,18.3-45,33c-11,5.8-20.4,10.1-27.3,13.1
			l-27,13.5c-21.2,9.8-44.5,20.5-68.7,32.4c-9.4,4.6-26.8,12.1-46,23.8c-8.1,5-16.8,10.8-26,18.2c-5.4,4.3-10.6,8.8-14,12
			c-23.7,22.4-21.1,39.6-41,56c-1.5,1.3-22.8,18.4-33,12c-10.4-6.5-7.6-36.1,6-56c5-7.4,13.2-13.5,30-25c21.8-15,38.6-22.9,48-27
			C413,511.8,417.3,510.2,420.4,509z"/>
	</g>
</g>
</svg>
