<svg id="Слой_1" data-name="Слой 1" xmlns="http://www.w3.org/2000/svg" viewBox="0 0 1000 1000"><defs><style>.cls-1{fill:#fff;opacity:0;}.cls-2{fill:#004ee1;}.cls-3{fill:#ff8100;}</style></defs><title>psamcs_logo_colored</title><rect class="cls-1" width="1000" height="1000"/><path d="M216.75,307.14A311.26,311.26,0,0,1,436.07,189H590.55c-35.16,61.34-73.85,106.59-120.12,138C398.8,345,317.58,337.27,216.75,307.14Z"/><path d="M370.58,584.11c15.2,61,10.78,129.08-11.17,210.64A312.42,312.42,0,0,1,157.64,431.11C258.81,474.68,327.85,522.4,370.58,584.11Z"/><path d="M850,189v340.4C796.65,497.86,756.62,463,728.23,422c-16.59-66.48-9.81-141.4,17.51-233Z"/><path d="M850,690V811H511.8C546,752.77,583.65,709.48,628.38,679.09,692.25,663.08,763.75,667.48,850,690Z"/><path class="cls-2" d="M643.5,189c-20.14,32.76-40.47,60.81-61.65,84.46-35.34,26-71.93,43.7-111.42,53.57,46.27-31.44,85-76.69,120.12-138Z"/><path class="cls-2" d="M370.58,584.11c-42.73-61.71-111.77-109.43-212.94-153a308.15,308.15,0,0,1,15.44-49c59.18,30.08,106.61,59.86,143.4,91.69C343,508.76,360.82,545,370.58,584.11Z"/><path class="cls-2" d="M628.38,679.09C583.65,709.48,546,752.77,511.8,811H459.11c18.89-30.15,38-56.2,57.84-78.35C552.3,706.65,588.88,689,628.38,679.09Z"/><path class="cls-2" d="M850,529.39v52.18c-25.66-16.07-48.16-32.36-67.67-49.25-26.51-35-44.35-71.18-54.1-110.32C756.62,463,796.65,497.86,850,529.39Z"/><path class="cls-3" d="M581.85,273.45C519,343.59,448.65,375,353.54,375.17c-48.32.1-103-7.85-166.4-22.86a313.94,313.94,0,0,1,29.61-45.17C317.58,337.27,398.8,345,470.43,327,509.92,317.15,546.51,299.46,581.85,273.45Z"/><path class="cls-3" d="M418.11,699.47c-.37,32.63-4.61,68.23-12.39,107.5a310.5,310.5,0,0,1-46.31-12.22c21.95-81.56,26.37-149.64,11.17-210.64-9.76-39.14-27.6-75.35-54.1-110.32C388,535.62,419.2,605.15,418.11,699.47Z"/><path class="cls-3" d="M850,641v49c-86.25-22.5-157.75-26.9-221.62-10.89C588.88,689,552.3,706.65,517,732.66c62.84-70.14,133.2-101.51,228.32-101.72C777.17,630.87,811.87,634.31,850,641Z"/><path class="cls-3" d="M782.33,532.32C710.84,470.49,679.6,401,680.69,306.65c.39-35.41,5.37-74.33,14.46-117.66h50.59c-27.32,91.61-34.1,166.53-17.51,233C738,461.14,755.82,497.35,782.33,532.32Z"/></svg>