<svg id="main" xmlns="http://www.w3.org/2000/svg" viewBox="0 0 1000 1000"><defs><style>.cls-1{fill:#fff;opacity:0;}</style></defs><title>psamsc_logo</title><rect id="frame" class="cls-1" width="1000" height="1000"/><path d="M850,150H404.55C228.82,150,86.36,306.7,86.36,500S228.82,850,404.55,850H913.64V150Zm0,318.18H404.55c-16,0-28.93,14.25-28.93,31.82s12.95,31.82,28.93,31.82H850v95.45H404.55c-63.91,0-115.71-57-115.71-127.27s51.8-127.27,115.71-127.27H850Zm0-159.09H404.55C308.69,309.09,231,394.56,231,500s77.7,190.91,173.56,190.91H850v95.45H404.55c-143.78,0-260.34-128.21-260.34-286.36S260.77,213.64,404.55,213.64H850Z"/></svg>