<?xml version="1.0" encoding="utf-8"?>
<!-- Generator: Adobe Illustrator 22.1.0, SVG Export Plug-In . SVG Version: 6.00 Build 0)  -->
<svg version="1.1" id="Layer_1" xmlns="http://www.w3.org/2000/svg" xmlns:xlink="http://www.w3.org/1999/xlink" x="0px" y="0px"
	 viewBox="0 0 96 96" style="enable-background:new 0 0 96 96;" xml:space="preserve">
<style type="text/css">
	.st0{fill:#FFFFFF;}
</style>
<g id="XMLID_2_">
	<path id="XMLID_7_" class="st0" d="M37.4,35.1L20.5,52l16.9,16.9L54.2,52L37.4,35.1z M27.8,52l9.5-9.5l9.5,9.5l-9.5,9.5L27.8,52z
		 M68.6,35.7C64,31.1,58,28.8,52,28.8v-8.4l-11,11l11,11V34c4.7,0,9.3,1.8,12.9,5.3c7.1,7.1,7.1,18.6,0,25.8
		c-3.6,3.6-8.2,5.3-12.9,5.3c-2.5,0-5-0.5-7.4-1.6l-3.9,3.9c3.5,1.9,7.4,2.9,11.3,2.9c6,0,12-2.3,16.6-6.9
		C77.8,59.6,77.8,44.8,68.6,35.7z"/>
</g>
</svg>
