<?xml version="1.0" encoding="utf-8"?>
<!-- Generator: Adobe Illustrator 22.1.0, SVG Export Plug-In . SVG Version: 6.00 Build 0)  -->
<svg version="1.1" id="main" xmlns="http://www.w3.org/2000/svg" xmlns:xlink="http://www.w3.org/1999/xlink" x="0px" y="0px"
	 viewBox="0 0 1000.2 1000.2" style="enable-background:new 0 0 1000.2 1000.2;" xml:space="preserve">
<style type="text/css">
	.st0{fill:#FFFFFF;}
</style>
<title>settings_selected</title>
<g id="settings">
	<g id="selected">
		<path class="st0" d="M88.5,836.6l-11.1,11.1c-7.9,7.9-7.9,20.6,0,28.5c0,0,0,0,0,0l49.3,49.3c7.9,7.9,20.6,7.9,28.5,0c0,0,0,0,0,0
			l11.1-11.1c6.5-6.6,16.7-7.8,24.6-3c26.9,16.5,56.2,28.6,86.8,35.9c9.1,2.1,15.6,10.2,15.6,19.6v15.7c0,11.1,9,20.1,20.1,20.1H383
			c11.1,0,20.1-9,20.1-20.1V967c0-9.4,6.5-17.5,15.6-19.6c30.6-7.3,59.9-19.5,86.8-35.9c7.9-4.8,18.1-3.6,24.6,3l11.1,11.1
			c7.9,7.9,20.6,7.9,28.5,0c0,0,0,0,0,0l49.3-49.3c7.9-7.9,7.9-20.6,0-28.5c0,0,0,0,0,0l-11-11.2c-6.6-6.5-7.9-16.7-3.1-24.6
			c18.8-30.7,32-64.5,38.8-99.9c0.3-1.4,1.5-2.5,3-2.5h29.5c11.1,0,20.1-9,20.1-20.1v-69.7c0-11.1-9-20.1-20.1-20.1h-15.7
			c-9.4,0-17.5-6.5-19.6-15.6c-7.3-30.6-19.5-59.9-35.9-86.8c-4.8-7.9-3.5-18,3-24.5l10.4-10.4c8.2-8.2,8.2-21.5,0-29.7c0,0,0,0,0,0
			L569.8,384c-7.9-7.9-20.6-7.9-28.5,0c0,0,0,0,0,0l-11.1,11.1c-6.5,6.6-16.8,7.8-24.7,3c-26.9-16.5-56.1-28.6-86.8-35.9
			c-9.1-2.1-15.6-10.2-15.6-19.6v-15.8c0-11.1-9-20.1-20.1-20.1h-69.7c-11.1,0-20.1,9-20.1,20.1v15.7c0,9.4-6.5,17.5-15.6,19.6
			c-30.6,7.3-59.9,19.5-86.8,35.9c-7.9,4.8-18.1,3.6-24.6-3l-11-11c-7.9-7.9-20.6-7.9-28.5,0c0,0,0,0,0,0l-49.3,49.3
			c-7.9,7.9-7.9,20.6,0,28.5c0,0,0,0,0,0l11.1,11.1c6.6,6.5,7.8,16.7,3,24.6c-16.5,26.9-28.6,56.1-35.9,86.8
			c-2.1,9.2-10.3,15.6-19.7,15.6H20.2c-11.1,0-20.1,9-20.1,20.1v69.7c0,11.1,9,20.1,20.1,20.1h15.7c9.4,0,17.5,6.5,19.6,15.6
			c7.3,30.6,19.5,59.9,35.9,86.8C96.3,819.9,95.1,830.1,88.5,836.6z M348.2,432.4c121.6,0,220.6,97.7,222.3,219.2
			c1.7,124.3-101,227.1-225.3,225.3c-122.7-2-220.7-103.1-218.7-225.8C128.3,530,227,432.7,348.2,432.4L348.2,432.4z"/>
		<path class="st0" d="M986.7,182.9L986.7,182.9c10.2-4.4,14.9-16.1,10.6-26.3l-18.9-44.2c-4.4-10.2-16.1-14.9-26.3-10.6l0,0
			c-8.1,3.5-17.6,1.2-23.3-5.6c-9.1-11.1-19.3-21.1-30.6-30.1c-6.9-5.5-9.4-14.9-6.1-23.2l0,0c4.1-10.3-0.9-21.9-11.2-26.1L836.4-1
			c-10.3-4.2-22,0.8-26.2,11.1l0,0c-3.3,8.2-11.6,13.3-20.4,12.5c-14.3-1.4-28.7-1.2-42.9,0.4c-8.8,1-17.2-3.9-20.7-12.1l0,0
			C721.9,0.7,710.1-4,699.9,0.4l-44.2,18.8c-10.2,4.4-14.9,16.1-10.6,26.3l0,0c3.5,8.1,1.2,17.6-5.6,23.3
			c-11.1,9.1-21.1,19.4-30,30.6c-5.5,6.9-14.9,9.4-23.2,6.1l0,0c-10.3-4.1-21.9,0.9-26.1,11.1l-17.9,44.6
			c-4.1,10.3,0.9,21.9,11.1,26.1l0,0c8.2,3.3,13.3,11.6,12.5,20.4c-1.4,14.3-1.2,28.7,0.5,42.9c1,8.8-3.9,17.2-12.1,20.7l0,0
			c-10.2,4.4-14.9,16.1-10.6,26.3l18.8,44.2c4.4,10.2,16.1,14.9,26.3,10.6l0,0c8.1-3.5,17.6-1.2,23.3,5.6
			c9.1,11.1,19.4,21.1,30.7,30c6.9,5.5,9.4,14.9,6.1,23.1l0,0c-4.1,10.3,0.9,21.9,11.1,26.1l44.6,17.9c10.3,4.1,22-0.9,26.1-11.2
			l0,0c3.3-8.2,11.6-13.3,20.4-12.5c14.3,1.4,28.7,1.2,42.9-0.4c8.8-1,17.2,3.9,20.7,12.1l0,0c4.4,10.2,16.1,14.9,26.3,10.6
			l44.2-18.8c10.2-4.4,14.9-16.1,10.6-26.3l0,0c-3.5-8.1-1.2-17.6,5.6-23.3c11.1-9.1,21.1-19.4,30-30.6c5.5-6.9,14.9-9.4,23.2-6.1
			l0,0c10.3,4.1,21.9-0.9,26.1-11.1l17.9-44.6c4.1-10.3-0.9-22-11.1-26.1l0,0c-8.2-3.3-13.3-11.6-12.5-20.4
			c1.4-14.3,1.2-28.7-0.4-42.9C973.6,194.7,978.5,186.3,986.7,182.9z M824.5,353.8c-69.9,29.8-150.8-2.7-180.7-72.6
			c-29.8-69.9,2.7-150.8,72.6-180.7s150.8,2.7,180.7,72.6c0,0,0,0,0,0c30.1,69.2-1.5,149.7-70.7,179.8
			C825.8,353.2,825.2,353.5,824.5,353.8z"/>
	</g>
</g>
</svg>
