<?xml version="1.0" encoding="utf-8"?>
<!-- Generator: Adobe Illustrator 22.1.0, SVG Export Plug-In . SVG Version: 6.00 Build 0)  -->
<svg version="1.1" id="main" xmlns="http://www.w3.org/2000/svg" xmlns:xlink="http://www.w3.org/1999/xlink" x="0px" y="0px"
	 viewBox="0 0 1000.2 1000.2" style="enable-background:new 0 0 1000.2 1000.2;" xml:space="preserve">
<style type="text/css">
	.st0{fill:none;stroke:#FFFFFF;stroke-width:0.25;stroke-miterlimit:10;stroke-opacity:0;}
	.st1{fill:#FFCC00;}
</style>
<title>cros</title>
<rect id="frame" x="0.1" y="0.1" class="st0" width="1000" height="1000"/>
<g>
	<g>
		<path class="st1" d="M777.1,727.2l-31.3-393.9c-1.9-25.4-23.4-45.3-48.8-45.3h-61.7v91.5c0,11.3-9.2,20.5-20.5,20.5
			s-20.5-9.2-20.5-20.5v-91.5H405.7v91.5c0,11.3-9.2,20.5-20.5,20.5s-20.5-9.2-20.5-20.5v-91.5h-61.8c-25.4,0-46.9,19.8-48.8,45.3
			l-31.2,394c-2.5,31.6,8.5,63,30.1,86.1c21.5,23.2,52,36.5,83.7,36.5h327c31.6,0,62.1-13.3,83.7-36.5
			C768.7,790.3,779.6,758.8,777.1,727.2z M592.4,526.7l-106.1,106c-4,4-9.3,6-14.5,6s-10.5-2.1-14.5-6L407.7,583
			c-8.1-8.1-8.1-20.9,0-29c8.1-8.1,21.1-8.1,29,0l35.3,35.1l91.6-91.6c7.9-7.9,20.9-7.9,29,0C600.4,505.6,600.4,518.6,592.4,526.7z"
			/>
	</g>
</g>
<g>
	<g>
		<path class="st1" d="M500,150c-74.6,0-135.4,60.7-135.4,135.4v2.7h41v-2.7c0-52,42.2-94.3,94.3-94.3s94.3,42.2,94.3,94.3v2.7h41
			v-2.7C635.4,210.7,574.6,150,500,150z"/>
	</g>
</g>
</svg>
