<?xml version="1.0" encoding="utf-8"?>
<!-- Generator: Adobe Illustrator 22.1.0, SVG Export Plug-In . SVG Version: 6.00 Build 0)  -->
<svg version="1.1" id="Capa_1" xmlns="http://www.w3.org/2000/svg" xmlns:xlink="http://www.w3.org/1999/xlink" x="0px" y="0px"
	 viewBox="0 0 512 512" style="enable-background:new 0 0 512 512;" xml:space="preserve">
<style type="text/css">
	.st0{fill:#FFCC00;}
</style>
<g>
	<g>
		<path class="st0" d="M458.7,422.2l-22.9-288.1c-1.4-18.6-17.1-33.1-35.7-33.1H355v66.9c0,8.3-6.7,15-15,15c-8.3,0-15-6.7-15-15
			V101H187v66.9c0,8.3-6.7,15-15,15c-8.3,0-15-6.7-15-15V101h-45.2c-18.6,0-34.3,14.5-35.7,33.1L53.3,422.3
			c-1.8,23.1,6.2,46.1,22,63c15.7,17,38,26.7,61.2,26.7h239.2c23.1,0,45.4-9.7,61.2-26.7C452.5,468.3,460.5,445.3,458.7,422.2z
			 M323.6,275.5L246,353c-2.9,2.9-6.8,4.4-10.6,4.4c-3.8,0-7.7-1.5-10.6-4.4l-36.3-36.3c-5.9-5.9-5.9-15.3,0-21.2s15.4-5.9,21.2,0
			l25.8,25.7l67-67c5.8-5.8,15.3-5.8,21.2,0C329.4,260.1,329.4,269.6,323.6,275.5z"/>
	</g>
</g>
<g>
	<g>
		<path class="st0" d="M256,0c-54.6,0-99,44.4-99,99v2h30v-2c0-38,30.9-69,69-69s69,30.9,69,69v2h30v-2C355,44.4,310.6,0,256,0z"/>
	</g>
</g>
</svg>
