<svg id="Слой_1" data-name="Слой 1" xmlns="http://www.w3.org/2000/svg" xmlns:xlink="http://www.w3.org/1999/xlink" viewBox="0 0 700 700"><defs><style>.cls-1{fill:url(#Безымянный_градиент_3);}.cls-2{fill:#c8daea;}.cls-3{fill:#a9c9dd;}.cls-4{fill:url(#Безымянный_градиент_2);}</style><linearGradient id="Безымянный_градиент_3" x1="-1091.91" y1="705.14" x2="-1092.64" y2="703.44" gradientTransform="matrix(240, 0, 0, -240, 262511, 169345)" gradientUnits="userSpaceOnUse"><stop offset="0" stop-color="#37aee2"/><stop offset="1" stop-color="#1e96c8"/></linearGradient><linearGradient id="Безымянный_градиент_2" x1="-1086.93" y1="703.71" x2="-1086.37" y2="702.64" gradientTransform="matrix(130.49, 0, 0, -109.45, 142361.44, 77529.15)" gradientUnits="userSpaceOnUse"><stop offset="0" stop-color="#eff7fc"/><stop offset="1" stop-color="#fff"/></linearGradient></defs><title>telegram</title><circle class="cls-1" cx="350" cy="350" r="350"/><path class="cls-2" d="M435.83,660.42c-11.34,0-9.41-4.28-13.32-15.08L389.17,535.6,645.83,383.33" transform="translate(-150 -150)"/><path class="cls-3" d="M435.83,660.42c8.75,0,12.62-4,17.5-8.75L500,606.29l-58.21-35.1" transform="translate(-150 -150)"/><path class="cls-4" d="M441.78,571.2,582.83,675.41c16.1,8.88,27.72,4.28,31.73-14.95L672,389.9c5.88-23.56-9-34.25-24.38-27.26l-337.14,130c-23,9.23-22.88,22.07-4.19,27.79l86.51,27,200.3-126.36c9.45-5.74,18.13-2.66,11,3.67" transform="translate(-150 -150)"/></svg>