<?xml version="1.0" encoding="utf-8"?>
<!-- Generator: Adobe Illustrator 22.1.0, SVG Export Plug-In . SVG Version: 6.00 Build 0)  -->
<svg version="1.1" id="Capa_1" xmlns="http://www.w3.org/2000/svg" xmlns:xlink="http://www.w3.org/1999/xlink" x="0px" y="0px"
	 viewBox="0 0 512 512" style="enable-background:new 0 0 512 512;" xml:space="preserve">
<style type="text/css">
	.st0{fill:#FFCC00;}
</style>
<g>
	<g>
		<g>
			<path class="st0" d="M511.8,321.2l-6-50.4c-0.6-5.4-5.5-9.3-10.9-8.8c-19.9,2-38-12.5-40.4-32.3c-2.4-19.9,11.8-38.2,31.6-40.9
				c5.4-0.7,9.2-5.7,8.6-11.1l-6-50.4c-1-8.7-5.4-16.5-12.3-21.9c-6.9-5.4-15.5-7.8-24.2-6.8l-351.2,41.9c-8.6,1-16.3,5.3-21.7,12.1
				H32.8C14.7,152.7,0,167.4,0,185.5v50.8c0,5.5,4.4,9.9,9.8,10c20,0.3,36.3,16.9,36.3,36.9S29.8,319.7,9.8,320
				c-5.5,0.1-9.8,4.5-9.8,10v50.8c0,18.1,14.7,32.8,32.8,32.8h281.7h72c18.1,0,32.8-14.7,32.8-32.8v-15.4l63.7-7.6
				c8.7-1,16.5-5.4,21.9-12.3C510.4,338.5,512.8,330,511.8,321.2z M399.4,347.6v20.1v13c0,7.1-5.8,12.8-12.8,12.8h-62v-16.9v-1.8
				c0-5.5-4.5-10-10-10s-10,4.5-10,10v4.2v14.6H182.6h-74H32.8c-7.1,0-12.8-5.8-12.8-12.8V339c11.2-2.2,21.6-7.6,29.7-16
				c10.5-10.7,16.3-24.9,16.3-39.9s-5.8-29.2-16.3-39.9c-8.2-8.3-18.5-13.8-29.7-16v-41.8c0-7.1,5.8-12.8,12.8-12.8H72h20h212.6
				v121.8c0,5.5,4.5,10,10,10s10-4.5,10-10V172.7h62c7.1,0,12.8,5.8,12.8,12.8v41.8c-11.2,2.2-21.6,7.6-29.7,16
				c-10.5,10.7-16.3,24.9-16.3,39.9s5.8,29.2,16.3,39.9c8.2,8.3,18.5,13.8,29.7,16L399.4,347.6L399.4,347.6z M489.2,333.1
				c-2.1,2.7-5.2,4.4-8.6,4.8l-61.3,7.3V330c0-5.5-4.4-9.9-9.8-10c-20-0.3-36.3-16.9-36.3-36.9s16.3-36.5,36.3-36.9
				c5.5-0.1,9.8-4.5,9.8-10v-50.8c0-18.1-14.7-32.8-32.8-32.8h-72H168.3l286.2-34.2c3.4-0.4,6.8,0.5,9.5,2.7
				c2.7,2.1,4.4,5.2,4.8,8.6l5,41.5c-10.9,3.5-20.5,10.1-27.6,19.4c-9.2,11.9-13.3,26.6-11.5,41.6s9.2,28.3,21,37.7
				c9.1,7.3,20,11.5,31.4,12.3l5,41.5C492.3,327,491.4,330.4,489.2,333.1z"/>
			<path class="st0" d="M323.8,330.8c-0.2-0.6-0.6-1.2-0.9-1.7c-0.4-0.5-0.8-1.1-1.2-1.5s-1-0.9-1.5-1.2c-0.5-0.4-1.1-0.7-1.7-0.9
				s-1.2-0.5-1.9-0.6c-1.3-0.2-2.6-0.2-3.9,0c-0.6,0.1-1.3,0.3-1.9,0.6c-0.6,0.2-1.2,0.5-1.7,0.9c-0.5,0.4-1.1,0.8-1.5,1.2
				c-0.5,0.5-0.9,1-1.2,1.5c-0.4,0.5-0.7,1.1-0.9,1.7c-0.2,0.6-0.4,1.2-0.6,1.9s-0.2,1.3-0.2,2c0,0.6,0.1,1.3,0.2,2s0.3,1.3,0.6,1.9
				c0.2,0.6,0.6,1.2,0.9,1.7c0.4,0.5,0.8,1.1,1.2,1.5c0.5,0.5,1,0.9,1.5,1.2c0.5,0.4,1.1,0.7,1.7,0.9c0.6,0.2,1.2,0.5,1.9,0.6
				c0.6,0.1,1.3,0.2,2,0.2c0.6,0,1.3-0.1,2-0.2c0.6-0.1,1.3-0.3,1.9-0.6s1.2-0.6,1.7-0.9c0.5-0.4,1.1-0.8,1.5-1.2s0.9-1,1.2-1.5
				c0.4-0.5,0.7-1.1,0.9-1.7c0.2-0.6,0.4-1.2,0.6-1.9c0.1-0.6,0.2-1.3,0.2-2c0-0.6-0.1-1.3-0.2-2S324,331.4,323.8,330.8z"/>
			<path class="st0" d="M241.9,257.3l-43.9-6.4l-19.6-39.8c-1.7-3.4-5.2-5.6-9-5.6s-7.3,2.2-9,5.6l-17.3,35l-2.4,4.8l-16.6,2.4
				l-27.3,4c-3.8,0.5-6.9,3.2-8.1,6.8s-0.2,7.6,2.5,10.3l26.5,25.8l5.3,5.2l-3,17.6l-4.5,26.1c-0.6,3.8,0.9,7.5,4,9.8
				c3.1,2.2,7.2,2.5,10.5,0.8l39.3-20.7l39.3,20.7c1.5,0.8,3.1,1.1,4.7,1.1c2.1,0,4.1-0.6,5.9-1.9c3.1-2.2,4.6-6,4-9.8l-7.5-43.8
				l31.8-31c2.7-2.7,3.7-6.6,2.5-10.3C248.8,260.5,245.6,257.8,241.9,257.3z M197.9,294.7c-2.4,2.3-3.4,5.6-2.9,8.9l5,29l-26-13.7
				c-2.9-1.5-6.4-1.5-9.3,0l-26,13.7l5-29c0.3-1.5,0.2-3-0.2-4.4c-0.5-1.7-1.4-3.2-2.6-4.4l-12.3-12l-8.7-8.5l10.1-1.5l19-2.8
				c0.3,0,0.6-0.1,0.9-0.2c2.9-0.7,5.3-2.6,6.6-5.3l13-26.4l13,26.4c1.5,3,4.3,5,7.5,5.5l29.1,4.2L197.9,294.7z"/>
		</g>
	</g>
</g>
</svg>
