<?xml version="1.0" encoding="utf-8"?>
<!-- Generator: Adobe Illustrator 22.1.0, SVG Export Plug-In . SVG Version: 6.00 Build 0)  -->
<svg version="1.1" id="main" xmlns="http://www.w3.org/2000/svg" xmlns:xlink="http://www.w3.org/1999/xlink" x="0px" y="0px"
	 viewBox="0 0 1000.2 1000.2" style="enable-background:new 0 0 1000.2 1000.2;" xml:space="preserve">
<style type="text/css">
	.st0{fill:none;stroke:#FFFFFF;stroke-width:0.25;stroke-miterlimit:10;stroke-opacity:0;}
	.st1{fill:#FFCC00;}
</style>
<title>cros</title>
<rect id="frame" x="0.1" y="0.1" class="st0" width="1000" height="1000"/>
<g>
	<g>
		<path class="st1" d="M834.6,382.2l-52.3-51.9c-15.5,15.5-34.3,23.3-56.5,23.3c-22.2,0-41-7.8-56.5-23.3
			C653.8,314.8,646,296,646,273.8c0-22.2,7.8-41,23.3-56.5l-51.9-51.9c-10.3-10.2-22.8-15.4-37.6-15.4c-14.8,0-27.3,5.1-37.6,15.4
			L165.4,541.7C155.1,552,150,564.5,150,579.3c0,14.8,5.1,27.3,15.4,37.6l51.9,52.3c15.5-15.5,34.3-23.3,56.5-23.3
			c22.2,0,41,7.7,56.5,23.3c15.5,15.5,23.3,34.3,23.3,56.5s-7.8,41-23.3,56.5l52.3,52.3c10.2,10.2,22.8,15.4,37.6,15.4
			c14.8,0,27.4-5.1,37.6-15.4l376.8-377.2c10.2-10.2,15.4-22.8,15.4-37.6C850,405,844.9,392.5,834.6,382.2z M722,465.3L465.3,722
			c-5,5-11.2,7.5-18.7,7.5c-7.5,0-13.7-2.5-18.7-7.5L277.5,571.7c-5.3-5.3-7.9-11.5-7.9-18.7c0-7.2,2.6-13.4,7.9-18.7l256.7-256.7
			c5-5,11.2-7.5,18.7-7.5c7.5,0,13.7,2.5,18.7,7.5L722,427.9c5.3,5.3,7.9,11.5,7.9,18.7C729.9,453.8,727.3,460,722,465.3z"/>
		<path class="st1" d="M553,315.4l131.3,131.3L446.6,684.2L315.4,553L553,315.4z"/>
	</g>
</g>
</svg>
