<?xml version="1.0" encoding="utf-8"?>
<!-- Generator: Adobe Illustrator 22.1.0, SVG Export Plug-In . SVG Version: 6.00 Build 0)  -->
<svg version="1.1" id="main" xmlns="http://www.w3.org/2000/svg" xmlns:xlink="http://www.w3.org/1999/xlink" x="0px" y="0px"
	 viewBox="0 0 1000.2 1000.2" style="enable-background:new 0 0 1000.2 1000.2;" xml:space="preserve">
<style type="text/css">
	.st0{fill:none;stroke:#FFFFFF;stroke-width:0.25;stroke-miterlimit:10;stroke-opacity:0;}
	.st1{fill:#FFFFFF;stroke:#FFFFFF;stroke-width:15;stroke-miterlimit:10;}
</style>
<title>cros</title>
<rect id="frame" x="0.1" y="0.1" class="st0" width="1000" height="1000"/>
<g>
	<path class="st1" d="M800.4,222.7H633.8c-1.3-14.8-5.9-39.8-21.5-55.9c-9.9-10.1-22.4-15.3-37.3-15.3H456.3
		c-14.9,0-27.4,5.1-37.3,15.3c-15.6,16.1-20.2,41.1-21.5,55.9H254.6c-6.5,0-11.9,5.3-11.9,11.9c0,6.6,5.3,11.9,11.9,11.9h545.8
		c6.5,0,11.9-5.3,11.9-11.9C812.2,228,806.9,222.7,800.4,222.7z M436,183.3c5.3-5.4,11.9-8.1,20.3-8.1h118.6
		c8.3,0,14.9,2.6,20.3,8.1c9.6,9.8,13.4,26.9,14.7,39.4H421.3C422.7,210.3,426.5,193.1,436,183.3z"/>
	<path class="st1" d="M301.6,792.4c0.4,20.4,13.2,59.1,58.2,59.1h335.4c45.1,0,57.8-38.6,58.2-58.8l21.7-522.5H279.8L301.6,792.4z
		 M750.4,293.9L729.7,792c-0.1,3.7-1.7,35.8-34.5,35.8H359.8c-32.4,0-34.4-32.2-34.5-36.1l-20.7-497.8L750.4,293.9L750.4,293.9z"/>
	<path class="st1" d="M385.1,792.2h284.7c6.5,0,11.9-5.3,11.9-11.9s-5.3-11.9-11.9-11.9H385.1c-6.5,0-11.9,5.3-11.9,11.9
		S378.6,792.2,385.1,792.2z"/>
	<path class="st1" d="M385.1,732.9h284.7c6.5,0,11.9-5.3,11.9-11.9s-5.3-11.9-11.9-11.9H385.1c-6.5,0-11.9,5.3-11.9,11.9
		S378.6,732.9,385.1,732.9z"/>
	<path class="st1" d="M385.1,673.5h284.7c6.5,0,11.9-5.3,11.9-11.9s-5.3-11.9-11.9-11.9H385.1c-6.5,0-11.9,5.3-11.9,11.9
		S378.6,673.5,385.1,673.5z"/>
</g>
</svg>
