<?xml version="1.0" encoding="utf-8"?>
<!-- Generator: Adobe Illustrator 22.1.0, SVG Export Plug-In . SVG Version: 6.00 Build 0)  -->
<svg version="1.1" id="Layer_1" xmlns="http://www.w3.org/2000/svg" xmlns:xlink="http://www.w3.org/1999/xlink" x="0px" y="0px"
	 viewBox="0 0 512 512" style="enable-background:new 0 0 512 512;" xml:space="preserve">
<style type="text/css">
	.st0{fill:#5D5F65;}
	.st1{fill:#C4C9D8;}
	.st2{fill:#B8BECA;}
	.st3{fill:#979BA5;}
	.st4{fill:#7F828A;}
	.st5{fill:#767880;}
</style>
<g>
	<path class="st0" d="M327.8,48.2V24c0-13.2-10.7-24-23.9-24h-95.8c-13.2,0-23.9,10.7-23.9,24v24.3 M303.7,48.2h-95.4V24.1h95.4
		V48.2z"/>
</g>
<g>
	<g>
		<path class="st1" d="M68.9,72.3l15.2,396.4c0.9,24.3,20.7,43.3,45,43.3h253.8c24.3,0,44-19,45-43.3l15.2-396.4"/>
	</g>
</g>
<path class="st2" d="M427.9,468.7l15.2-396.4H256V512h126.9C407.2,512,426.9,493,427.9,468.7z"/>
<g>
	<g>
		<g>
			<path class="st3" d="M182.6,181.6c-0.1-6.6-5.5-11.8-12-11.8c-0.1,0-0.2,0-0.2,0c-6.7,0.1-11.9,5.6-11.8,12.3l3.8,196.6
				c0.1,6.6,5.5,11.8,12,11.8c0.1,0,0.2,0,0.2,0c6.7-0.1,11.9-5.6,11.8-12.3L182.6,181.6z"/>
		</g>
	</g>
	<g>
		<g>
			<path class="st3" d="M256,169.8c-6.7,0-12,5.4-12,12v196.6c0,6.7,5.4,12,12,12c6.7,0,12-5.4,12-12V181.8
				C268,175.1,262.7,169.8,256,169.8z"/>
		</g>
	</g>
	<g>
		<g>
			<path class="st3" d="M341.6,169.8c-6.6-0.1-12.2,5.2-12.3,11.8l-3.8,196.6c-0.1,6.7,5.2,12.1,11.8,12.3c0.1,0,0.2,0,0.2,0
				c6.5,0,11.9-5.2,12-11.8l3.8-196.6C353.6,175.4,348.3,169.9,341.6,169.8z"/>
		</g>
	</g>
</g>
<path class="st4" d="M465.4,72.3H46.6c-6.6,0-12-5.4-12-12v0c0-6.6,5.4-12,12-12h418.8c6.6,0,12,5.4,12,12v0
	C477.4,66.9,472,72.3,465.4,72.3z"/>
<path class="st5" d="M465.4,48.3H256v24h209.4c6.6,0,12-5.4,12-12C477.4,53.7,472,48.3,465.4,48.3z"/>
</svg>
