<?xml version="1.0" encoding="utf-8"?>
<!-- Generator: Adobe Illustrator 22.1.0, SVG Export Plug-In . SVG Version: 6.00 Build 0)  -->
<svg version="1.1" id="Layer_1" xmlns="http://www.w3.org/2000/svg" xmlns:xlink="http://www.w3.org/1999/xlink" x="0px" y="0px"
	 viewBox="0 0 300 300" style="enable-background:new 0 0 300 300;" xml:space="preserve">
<style type="text/css">
	.st0{fill:#3FB6DC;}
</style>
<g>
	<g>
		<path class="st0" d="M150,36.6C87.4,36.6,36.6,87.4,36.6,150c0,62.6,50.8,113.4,113.4,113.4S263.4,212.6,263.4,150
			C263.4,87.4,212.6,36.6,150,36.6z M150.3,203.5L150.3,203.5l-0.7,0h-48.4c0-35.4,31.1-35.4,38-44.7l0.8-4.2
			c-9.7-4.9-16.5-16.8-16.5-30.6c0-18.3,11.9-33.1,26.5-33.1c14.6,0,26.5,14.8,26.5,33.1c0,13.7-6.7,25.5-16.3,30.5l0.9,4.8
			c7.6,8.8,37.6,9.4,37.6,44.2H150.3z"/>
	</g>
</g>
</svg>
