<svg id="main" xmlns="http://www.w3.org/2000/svg" viewBox="0 0 1000 1000"><defs><style>.cls-1{fill:#fff;opacity:0;}.cls-2,.cls-3{fill:#7540ee;}.cls-3{opacity:0.8;}.cls-4{fill:#2dc76d;}.cls-5{fill:#be63f9;}</style></defs><title>votes</title><rect id="frame" class="cls-1" width="1000" height="1000"/><g id="votes"><path class="cls-2" d="M742.62,387,642.3,541.75C638,546.11,500.21,686.11,508.76,677.42c-17.24,17.25-48.63,13.54-61.25-7.68-25.62-42.39,42-73.16,111.06-152.31,5.63-7.77,27.72-19.25,16.63-35.1l-4.93-6.46c-48.63-68.58-151.7-36-161.52,13.23H330.3c0-.61-.3-1.22-.3-1.83C303.85,397.56,357.28,309.42,444.15,287l159.69-40.59Z"/><path class="cls-3" d="M803.56,382.67c-5.72,6.38-15.54,5.68-21.83,0-44.09-44.52-168.29-169.9-160.3-161.82a9.85,9.85,0,0,0-3.4-3.71c-20.21-25.54-11.7-19.91,27.67-61.86,20-20,29.21,15.41,192.6,170.77,17.29,17.29-16.19,33.75-34.74,56.62Z"/><path class="cls-4" d="M618.94,604.7c-5.71,208.75,12.84,244.46-14.53,244.46C235.14,843.13,211,862.52,211,834.62c5.81-291.08-13.09-320.11,14.54-320.11H522.64c.31.3-87.3,89-87.3,89H435c-64.74,64.74,30.47,156.06,91.67,94.86Z"/><path class="cls-5" d="M461.22,574.16a59.75,59.75,0,0,0-6.66,7.9,56.25,56.25,0,0,1,6.47-7.9Z"/></g></svg>