<?xml version="1.0" encoding="utf-8"?>
<!-- Generator: Adobe Illustrator 22.1.0, SVG Export Plug-In . SVG Version: 6.00 Build 0)  -->
<svg version="1.1" id="Слой_1" xmlns="http://www.w3.org/2000/svg" xmlns:xlink="http://www.w3.org/1999/xlink" x="0px" y="0px"
	 viewBox="0 0 1000 1000" style="enable-background:new 0 0 1000 1000;" xml:space="preserve">
<style type="text/css">
	.st0{opacity:0;fill:none;stroke:#000000;stroke-width:0.25;stroke-miterlimit:10;}
	.st1{fill:#7540EE;}
	.st2{fill:#FF7052;}
	.st3{fill:#FFCC00;}
	.st4{fill:#2DC76D;}
</style>
<rect class="st0" width="1000" height="1000"/>
<g>
	<path class="st1" d="M229.3,667.7c53.6,29.9,109.1,47.3,169.9,29.9l-21-44.5h167.4l-99.3,132.8l-21.6-38.7
		c-75.5,29.6-150.2,13.4-224.6-27.8L229.3,667.7z"/>
	<path class="st2" d="M556.4,624.4h-61.7c33.7-71.3,27-160.6-47.1-170.5c-62.4,5.1-82.1,67.5-30.5,92.9
		c16.2,10.3,14.4,20.7,6.4,31.2c-134.9,41.4-203-80.2-178.2-197.9h61.1c-36.3,84,7.6,150.2,47.7,165.5
		C328,501.3,329.1,408.1,440,398C571.2,401.7,592,520.1,556.4,624.4z"/>
	<path class="st3" d="M709.7,767.6l-55.4-22.9c28.8-49.2,46.3-110.6,45.2-192.2h-48.4L725.6,401L800,551.3h-42.5
		C754.4,644.8,739.3,718.2,709.7,767.6z"/>
	<path class="st4" d="M709.1,367.3L676,429.7c-50.3-102.5-139.4-154-274.1-123.3l21.4,42.5L254,349.5l102.4-135.4l19.8,40.6
		C474.9,214.1,628.9,238.2,709.1,367.3z"/>
</g>
</svg>
