<svg id="main" xmlns="http://www.w3.org/2000/svg" viewBox="0 0 1000.25 1000.25"><defs><style>.cls-1,.cls-9{fill:none;}.cls-1{stroke:#fff;stroke-miterlimit:10;stroke-width:0.25px;opacity:0;}.cls-2{fill:#fc0;}.cls-3{fill:#eee;}.cls-4{fill:#d8d8e7;}.cls-5{fill:#2f61d5;}.cls-6{fill:#df422b;}.cls-7{fill:#2b8aff;}.cls-8{fill:#6c3;}</style></defs><title>laundry_selected</title><rect id="frame" class="cls-1" x="0.13" y="0.13" width="1000" height="1000"/><g id="laundry"><g id="selected"><path class="cls-2" d="M181.14,288.56H718V191.75a28.17,28.17,0,0,0-28.08-28.08H209.22a28.17,28.17,0,0,0-28.08,28.08Z" transform="translate(0.13 0.13)"/><path class="cls-3" d="M718,288.56H181.14V808.25c0,15.44,11.24,28.08,25,28.08H470.86V740.39a185.75,185.75,0,0,1-21.35,1.24,182.68,182.68,0,0,1,0-365.36c101.43,0,183.34,82.54,182.67,183.94A52.55,52.55,0,0,0,654.82,517H718Z" transform="translate(0.13 0.13)"/><path class="cls-4" d="M632.18,560.21c.67-101.4-81.24-183.94-182.67-183.94a182.68,182.68,0,0,0,0,365.36,185.62,185.62,0,0,0,21.35-1.24V674.27A117.27,117.27,0,1,1,566.73,555.8a52.59,52.59,0,0,0,65.45,4.41Z" transform="translate(0.13 0.13)"/><path class="cls-5" d="M566.73,555.8a117.15,117.15,0,1,0-95.87,118.47V645.61l-39,20-52.16-102L470.86,517h78.75A52.46,52.46,0,0,0,566.73,555.8Z" transform="translate(0.13 0.13)"/><path class="cls-2" d="M470.86,517h78.75a52.61,52.61,0,1,0,105.21,0h78.76l85.27,43.63L766.7,662.55l-33.12-16.94V836.33H470.86V645.61l-39.05,20-52.15-102Z" transform="translate(0.13 0.13)"/><path class="cls-6" d="M552.66,226.11h.63a13.67,13.67,0,1,0,0-27.34h-.63a13.67,13.67,0,1,0,0,27.34Z" transform="translate(0.13 0.13)"/><path class="cls-7" d="M595.55,226.11h62.77a13.67,13.67,0,0,0,0-27.34H595.55a13.67,13.67,0,1,0,0,27.34Z" transform="translate(0.13 0.13)"/><path class="cls-8" d="M498,226.11h.63a13.67,13.67,0,0,0,0-27.34H498a13.67,13.67,0,0,0,0,27.34Z" transform="translate(0.13 0.13)"/><path class="cls-9" d="M825.08,548.43,739.8,504.8a13.63,13.63,0,0,0-6.23-1.5h-1.9V191.75A41.8,41.8,0,0,0,689.92,150H209.22a41.8,41.8,0,0,0-41.75,41.75v616.5c0,23,17.33,41.75,38.63,41.75H733.57a13.68,13.68,0,0,0,13.68-13.67V668l13.22,6.76a13.67,13.67,0,0,0,18.4-5.94L831,566.83A13.67,13.67,0,0,0,825.08,548.43ZM209.22,177.34h480.7a14.43,14.43,0,0,1,14.41,14.41v83.14H194.82V191.75A14.43,14.43,0,0,1,209.22,177.34Zm-14.4,630.91V353.45h49.09a13.67,13.67,0,0,0,0-27.34H194.82V302.23H704.33V503.3H654.82a13.66,13.66,0,0,0-13.63,12.82A196.49,196.49,0,0,0,449.51,362.59c-108.27,0-196.35,88.09-196.35,196.36S341.24,755.3,449.51,755.3c2.55,0,5.11-.07,7.68-.17v67.52H206.1C200,822.66,194.82,816.06,194.82,808.25Zm172.67-238.4,43.62,85.28a103.62,103.62,0,1,1,126-151.83H470.86a13.66,13.66,0,0,0-6.23,1.5l-91.2,46.65A13.67,13.67,0,0,0,367.49,569.85ZM580.07,549A130.95,130.95,0,0,0,449.51,428C377.32,428,318.58,486.76,318.58,559A131.07,131.07,0,0,0,449.51,689.88c2.56,0,5.12-.1,7.68-.25v38.14c-2.57.12-5.14.19-7.68.19-93.19,0-169-75.82-169-169s75.82-169,169-169A169,169,0,0,1,618.38,552.38,38.79,38.79,0,0,1,580.07,549Zm180.68,95.18-21-10.71a13.68,13.68,0,0,0-19.9,12.17v177H484.53v-36h90.54a13.67,13.67,0,0,0,0-27.34H484.53V645.61a13.67,13.67,0,0,0-19.9-12.17l-26.87,13.74-39.71-77.61,76.1-38.93h63.21a66.21,66.21,0,0,0,19.41,34.51,12.92,12.92,0,0,0,1.59,1.46,66.09,66.09,0,0,0,80.94,5.25,12.27,12.27,0,0,0,1.57-1.1,66.44,66.44,0,0,0,26.2-40.12h63.21l70.17,35.9Z" transform="translate(0.13 0.13)"/></g></g></svg>