<?xml version="1.0" encoding="utf-8"?>
<!-- Generator: Adobe Illustrator 22.1.0, SVG Export Plug-In . SVG Version: 6.00 Build 0)  -->
<svg version="1.1" id="Capa_1" xmlns="http://www.w3.org/2000/svg" xmlns:xlink="http://www.w3.org/1999/xlink" x="0px" y="0px"
	 viewBox="0 0 512 512" style="enable-background:new 0 0 512 512;" xml:space="preserve">
<style type="text/css">
	.st0{fill:#FFFFFF;}
</style>
<g>
	<g>
		<path class="st0" d="M256,0C114.8,0,0,114.8,0,256s114.8,256,256,256s256-114.8,256-256S397.2,0,256,0z M256,448
			c-105.9,0-192-86.1-192-192c0-40.4,12.2-78.6,35.5-111.2l267.7,267.7C334.6,435.8,296.4,448,256,448z M412.5,367.2L144.8,99.5
			C177.4,76.2,215.6,64,256,64c105.9,0,192,86.1,192,192C448,296.4,435.8,334.6,412.5,367.2z"/>
	</g>
</g>
</svg>
